<?xml version="1.0" encoding="UTF-8" standalone="no"?>
<!DOCTYPE svg PUBLIC "-//W3C//DTD SVG 1.1//EN"
 "http://www.w3.org/Graphics/SVG/1.1/DTD/svg11.dtd">
<!-- Generated by graphviz version 2.42.4 (0)
 -->
<!-- Title: PP7_Process_Flow Pages: 1 -->
<svg width="4910pt" height="1367pt"
 viewBox="0.00 0.00 4910.00 1367.35" xmlns="http://www.w3.org/2000/svg" xmlns:xlink="http://www.w3.org/1999/xlink">
<g id="graph0" class="graph" transform="scale(1 1) rotate(0) translate(4 1363.35)">
<title>PP7_Process_Flow</title>
<polygon fill="#f5f5f5" stroke="transparent" points="-4,4 -4,-1363.35 4906,-1363.35 4906,4 -4,4"/>
<g id="clust1" class="cluster">
<title>cluster_legend</title>
<polygon fill="#e8e8e8" stroke="#e8e8e8" points="8,-1276.35 8,-1351.35 1103,-1351.35 1103,-1276.35 8,-1276.35"/>
<text text-anchor="middle" x="555.5" y="-1336.15" font-family="Noto Sans Thai,Tahoma,Arial" font-size="14.00" fill="#000000">คำอธิบาย</text>
</g>
<g id="clust2" class="cluster">
<title>cluster_PAO</title>
<polygon fill="#e3f2fd" stroke="#e3f2fd" points="770,-104.43 770,-1237.13 1935,-1237.13 1935,-104.43 770,-104.43"/>
<text text-anchor="middle" x="1352.5" y="-1221.93" font-family="Noto Sans Thai,Tahoma,Arial" font-size="14.00">📌 PAO — สรรหาและประเมินผล</text>
</g>
<g id="clust3" class="cluster">
<title>cluster_PAD</title>
<polygon fill="#e8f5e9" stroke="#e8f5e9" points="1943,-8 1943,-579.71 3149,-579.71 3149,-8 1943,-8"/>
<text text-anchor="middle" x="2546" y="-564.51" font-family="Noto Sans Thai,Tahoma,Arial" font-size="14.00">📌 PAD — บริหารหลักสูตร</text>
</g>
<g id="clust4" class="cluster">
<title>cluster_WCD</title>
<polygon fill="#ffebee" stroke="#ffebee" points="3450,-104.43 3450,-275.85 4261,-275.85 4261,-104.43 3450,-104.43"/>
<text text-anchor="middle" x="3855.5" y="-260.65" font-family="Noto Sans Thai,Tahoma,Arial" font-size="14.00">📌 WCD — สวัสดิการและค่าตอบแทน</text>
</g>
<!-- legend_PM -->
<g id="node1" class="node">
<title>legend_PM</title>
<path fill="lightgrey" stroke="transparent" d="M1083.5,-1320.35C1083.5,-1320.35 818.5,-1320.35 818.5,-1320.35 812.5,-1320.35 806.5,-1314.35 806.5,-1308.35 806.5,-1308.35 806.5,-1296.35 806.5,-1296.35 806.5,-1290.35 812.5,-1284.35 818.5,-1284.35 818.5,-1284.35 1083.5,-1284.35 1083.5,-1284.35 1089.5,-1284.35 1095.5,-1290.35 1095.5,-1296.35 1095.5,-1296.35 1095.5,-1308.35 1095.5,-1308.35 1095.5,-1314.35 1089.5,-1320.35 1083.5,-1320.35"/>
<text text-anchor="middle" x="951" y="-1299.85" font-family="Noto Sans Thai,Tahoma,Arial" font-size="10.00" fill="#1565c0">PM = Process Manual (กระบวนการหลัก)</text>
</g>
<!-- legend_WI -->
<g id="node2" class="node">
<title>legend_WI</title>
<path fill="lightgrey" stroke="transparent" d="M776.5,-1320.35C776.5,-1320.35 449.5,-1320.35 449.5,-1320.35 443.5,-1320.35 437.5,-1314.35 437.5,-1308.35 437.5,-1308.35 437.5,-1296.35 437.5,-1296.35 437.5,-1290.35 443.5,-1284.35 449.5,-1284.35 449.5,-1284.35 776.5,-1284.35 776.5,-1284.35 782.5,-1284.35 788.5,-1290.35 788.5,-1296.35 788.5,-1296.35 788.5,-1308.35 788.5,-1308.35 788.5,-1314.35 782.5,-1320.35 776.5,-1320.35"/>
<text text-anchor="middle" x="613" y="-1299.85" font-family="Noto Sans Thai,Tahoma,Arial" font-size="10.00" fill="#2e7d32">WI = Work Instruction (คำแนะนำการทำงาน)</text>
</g>
<!-- legend_SD -->
<g id="node3" class="node">
<title>legend_SD</title>
<path fill="lightgrey" stroke="transparent" d="M407.5,-1320.35C407.5,-1320.35 222.5,-1320.35 222.5,-1320.35 216.5,-1320.35 210.5,-1314.35 210.5,-1308.35 210.5,-1308.35 210.5,-1296.35 210.5,-1296.35 210.5,-1290.35 216.5,-1284.35 222.5,-1284.35 222.5,-1284.35 407.5,-1284.35 407.5,-1284.35 413.5,-1284.35 419.5,-1290.35 419.5,-1296.35 419.5,-1296.35 419.5,-1308.35 419.5,-1308.35 419.5,-1314.35 413.5,-1320.35 407.5,-1320.35"/>
<text text-anchor="middle" x="315" y="-1299.85" font-family="Noto Sans Thai,Tahoma,Arial" font-size="10.00" fill="#e65100">SD = Standard/Script (มาตรฐาน)</text>
</g>
<!-- legend_FM -->
<g id="node4" class="node">
<title>legend_FM</title>
<path fill="lightgrey" stroke="transparent" d="M180,-1320.35C180,-1320.35 28,-1320.35 28,-1320.35 22,-1320.35 16,-1314.35 16,-1308.35 16,-1308.35 16,-1296.35 16,-1296.35 16,-1290.35 22,-1284.35 28,-1284.35 28,-1284.35 180,-1284.35 180,-1284.35 186,-1284.35 192,-1290.35 192,-1296.35 192,-1296.35 192,-1308.35 192,-1308.35 192,-1314.35 186,-1320.35 180,-1320.35"/>
<text text-anchor="middle" x="104" y="-1299.85" font-family="Noto Sans Thai,Tahoma,Arial" font-size="10.00" fill="#6a1b9a">FM = Form (แบบฟอร์ม)</text>
</g>
<!-- PAO_PM001 -->
<g id="node5" class="node">
<title>PAO_PM001</title>
<path fill="#1565c0" stroke="black" d="M1128.5,-1116.13C1128.5,-1116.13 957.5,-1116.13 957.5,-1116.13 951.5,-1116.13 945.5,-1110.13 945.5,-1104.13 945.5,-1104.13 945.5,-1092.13 945.5,-1092.13 945.5,-1086.13 951.5,-1080.13 957.5,-1080.13 957.5,-1080.13 1128.5,-1080.13 1128.5,-1080.13 1134.5,-1080.13 1140.5,-1086.13 1140.5,-1092.13 1140.5,-1092.13 1140.5,-1104.13 1140.5,-1104.13 1140.5,-1110.13 1134.5,-1116.13 1128.5,-1116.13"/>
<text text-anchor="middle" x="1043" y="-1101.13" font-family="Noto Sans Thai,Tahoma,Arial" font-size="10.00" fill="white">PM&#45;001</text>
<text text-anchor="middle" x="1043" y="-1090.13" font-family="Noto Sans Thai,Tahoma,Arial" font-size="10.00" fill="white">แสวงหาผู้สมัคร</text>
</g>
<!-- PAO_WI002 -->
<g id="node9" class="node">
<title>PAO_WI002</title>
<path fill="#2e7d32" stroke="black" d="M1351.5,-1026.13C1351.5,-1026.13 1180.5,-1026.13 1180.5,-1026.13 1174.5,-1026.13 1168.5,-1020.13 1168.5,-1014.13 1168.5,-1014.13 1168.5,-1002.13 1168.5,-1002.13 1168.5,-996.13 1174.5,-990.13 1180.5,-990.13 1180.5,-990.13 1351.5,-990.13 1351.5,-990.13 1357.5,-990.13 1363.5,-996.13 1363.5,-1002.13 1363.5,-1002.13 1363.5,-1014.13 1363.5,-1014.13 1363.5,-1020.13 1357.5,-1026.13 1351.5,-1026.13"/>
<text text-anchor="middle" x="1266" y="-1011.13" font-family="Noto Sans Thai,Tahoma,Arial" font-size="10.00" fill="white">WI&#45;002</text>
<text text-anchor="middle" x="1266" y="-1000.13" font-family="Noto Sans Thai,Tahoma,Arial" font-size="10.00" fill="white">คัดเลือกภายนอก</text>
</g>
<!-- PAO_PM001&#45;&gt;PAO_WI002 -->
<g id="edge4" class="edge">
<title>PAO_PM001&#45;&gt;PAO_WI002</title>
<path fill="none" stroke="#1565c0" d="M1041.88,-1079.96C1042.11,-1068.24 1044.51,-1053.24 1054,-1044.13 1056.11,-1042.11 1107.03,-1033.67 1158.44,-1025.58"/>
<polygon fill="#1565c0" stroke="#1565c0" points="1159.03,-1029.03 1168.37,-1024.02 1157.95,-1022.12 1159.03,-1029.03"/>
<text text-anchor="middle" x="1122.5" y="-1055.73" font-family="Noto Sans Thai,Tahoma,Arial" font-size="8.00">ประกาศรับสมัคร</text>
<text text-anchor="middle" x="1122.5" y="-1046.73" font-family="Noto Sans Thai,Tahoma,Arial" font-size="8.00">10 ช่องทาง</text>
</g>
<!-- PAO_WI003 -->
<g id="node10" class="node">
<title>PAO_WI003</title>
<path fill="#2e7d32" stroke="black" d="M1351.5,-932.92C1351.5,-932.92 1180.5,-932.92 1180.5,-932.92 1174.5,-932.92 1168.5,-926.92 1168.5,-920.92 1168.5,-920.92 1168.5,-908.92 1168.5,-908.92 1168.5,-902.92 1174.5,-896.92 1180.5,-896.92 1180.5,-896.92 1351.5,-896.92 1351.5,-896.92 1357.5,-896.92 1363.5,-902.92 1363.5,-908.92 1363.5,-908.92 1363.5,-920.92 1363.5,-920.92 1363.5,-926.92 1357.5,-932.92 1351.5,-932.92"/>
<text text-anchor="middle" x="1266" y="-917.92" font-family="Noto Sans Thai,Tahoma,Arial" font-size="10.00" fill="white">WI&#45;003</text>
<text text-anchor="middle" x="1266" y="-906.92" font-family="Noto Sans Thai,Tahoma,Arial" font-size="10.00" fill="white">สรุปผลคัดเลือก</text>
</g>
<!-- PAO_PM001&#45;&gt;PAO_WI003 -->
<g id="edge5" class="edge">
<title>PAO_PM001&#45;&gt;PAO_WI003</title>
<path fill="none" stroke="#1565c0" d="M1032.1,-1079.77C1019.33,-1056.98 1002.27,-1016.75 1022,-990.13 1039.23,-966.89 1102.46,-948.03 1160.23,-935.15"/>
<polygon fill="#1565c0" stroke="#1565c0" points="1161.17,-938.52 1170.19,-932.97 1159.67,-931.69 1161.17,-938.52"/>
<text text-anchor="middle" x="1090.5" y="-1006.23" font-family="Noto Sans Thai,Tahoma,Arial" font-size="8.00">ใบสมัครทั้งหมด</text>
</g>
<!-- PAO_PM002 -->
<g id="node6" class="node">
<title>PAO_PM002</title>
<path fill="#1565c0" stroke="black" d="M1547,-1116.13C1547,-1116.13 1363,-1116.13 1363,-1116.13 1357,-1116.13 1351,-1110.13 1351,-1104.13 1351,-1104.13 1351,-1092.13 1351,-1092.13 1351,-1086.13 1357,-1080.13 1363,-1080.13 1363,-1080.13 1547,-1080.13 1547,-1080.13 1553,-1080.13 1559,-1086.13 1559,-1092.13 1559,-1092.13 1559,-1104.13 1559,-1104.13 1559,-1110.13 1553,-1116.13 1547,-1116.13"/>
<text text-anchor="middle" x="1455" y="-1101.13" font-family="Noto Sans Thai,Tahoma,Arial" font-size="10.00" fill="white">PM&#45;002</text>
<text text-anchor="middle" x="1455" y="-1090.13" font-family="Noto Sans Thai,Tahoma,Arial" font-size="10.00" fill="white">นำเข้าต่างด้าว</text>
</g>
<!-- PAO_WI006 -->
<g id="node12" class="node">
<title>PAO_WI006</title>
<path fill="#2e7d32" stroke="black" d="M1648.5,-1026.13C1648.5,-1026.13 1451.5,-1026.13 1451.5,-1026.13 1445.5,-1026.13 1439.5,-1020.13 1439.5,-1014.13 1439.5,-1014.13 1439.5,-1002.13 1439.5,-1002.13 1439.5,-996.13 1445.5,-990.13 1451.5,-990.13 1451.5,-990.13 1648.5,-990.13 1648.5,-990.13 1654.5,-990.13 1660.5,-996.13 1660.5,-1002.13 1660.5,-1002.13 1660.5,-1014.13 1660.5,-1014.13 1660.5,-1020.13 1654.5,-1026.13 1648.5,-1026.13"/>
<text text-anchor="middle" x="1550" y="-1011.13" font-family="Noto Sans Thai,Tahoma,Arial" font-size="10.00" fill="white">WI&#45;006</text>
<text text-anchor="middle" x="1550" y="-1000.13" font-family="Noto Sans Thai,Tahoma,Arial" font-size="10.00" fill="white">ขอโควต้าต่างด้าว</text>
</g>
<!-- PAO_PM002&#45;&gt;PAO_WI006 -->
<g id="edge12" class="edge">
<title>PAO_PM002&#45;&gt;PAO_WI006</title>
<path fill="none" stroke="#1565c0" d="M1473.77,-1079.75C1488.17,-1066.4 1508.23,-1047.83 1524.15,-1033.08"/>
<polygon fill="#1565c0" stroke="#1565c0" points="1526.64,-1035.55 1531.59,-1026.18 1521.88,-1030.41 1526.64,-1035.55"/>
<text text-anchor="middle" x="1604" y="-1051.23" font-family="Noto Sans Thai,Tahoma,Arial" font-size="8.00">ความต้องการต่างด้าว</text>
</g>
<!-- PAO_PM003 -->
<g id="node7" class="node">
<title>PAO_PM003</title>
<path fill="#1565c0" stroke="black" d="M1796,-455.49C1796,-455.49 1612,-455.49 1612,-455.49 1606,-455.49 1600,-449.49 1600,-443.49 1600,-443.49 1600,-431.49 1600,-431.49 1600,-425.49 1606,-419.49 1612,-419.49 1612,-419.49 1796,-419.49 1796,-419.49 1802,-419.49 1808,-425.49 1808,-431.49 1808,-431.49 1808,-443.49 1808,-443.49 1808,-449.49 1802,-455.49 1796,-455.49"/>
<text text-anchor="middle" x="1704" y="-440.49" font-family="Noto Sans Thai,Tahoma,Arial" font-size="10.00" fill="white">PM&#45;003</text>
<text text-anchor="middle" x="1704" y="-429.49" font-family="Noto Sans Thai,Tahoma,Arial" font-size="10.00" fill="white">ประเมินทดลองงาน</text>
</g>
<!-- PAO_WI016 -->
<g id="node21" class="node">
<title>PAO_WI016</title>
<path fill="#2e7d32" stroke="black" d="M1842,-359.07C1842,-359.07 1566,-359.07 1566,-359.07 1560,-359.07 1554,-353.07 1554,-347.07 1554,-347.07 1554,-335.07 1554,-335.07 1554,-329.07 1560,-323.07 1566,-323.07 1566,-323.07 1842,-323.07 1842,-323.07 1848,-323.07 1854,-329.07 1854,-335.07 1854,-335.07 1854,-347.07 1854,-347.07 1854,-353.07 1848,-359.07 1842,-359.07"/>
<text text-anchor="middle" x="1704" y="-344.07" font-family="Noto Sans Thai,Tahoma,Arial" font-size="10.00" fill="white">WI&#45;016</text>
<text text-anchor="middle" x="1704" y="-333.07" font-family="Noto Sans Thai,Tahoma,Arial" font-size="10.00" fill="white">ประเมินทดลองงาน/โอนย้าย</text>
</g>
<!-- PAO_PM003&#45;&gt;PAO_WI016 -->
<g id="edge17" class="edge">
<title>PAO_PM003&#45;&gt;PAO_WI016</title>
<path fill="none" stroke="#1565c0" d="M1704,-419.17C1704,-405.33 1704,-385.66 1704,-369.66"/>
<polygon fill="#1565c0" stroke="#1565c0" points="1707.5,-369.28 1704,-359.28 1700.5,-369.28 1707.5,-369.28"/>
<text text-anchor="middle" x="1788.5" y="-391.88" font-family="Noto Sans Thai,Tahoma,Arial" font-size="8.00">ผลประเมินพฤติกรรม/</text>
<text text-anchor="middle" x="1788.5" y="-382.88" font-family="Noto Sans Thai,Tahoma,Arial" font-size="8.00">ทักษะ/ทุนองค์กร</text>
</g>
<!-- PAO_WI001 -->
<g id="node8" class="node">
<title>PAO_WI001</title>
<path fill="#2e7d32" stroke="black" d="M1325,-1206.13C1325,-1206.13 1167,-1206.13 1167,-1206.13 1161,-1206.13 1155,-1200.13 1155,-1194.13 1155,-1194.13 1155,-1182.13 1155,-1182.13 1155,-1176.13 1161,-1170.13 1167,-1170.13 1167,-1170.13 1325,-1170.13 1325,-1170.13 1331,-1170.13 1337,-1176.13 1337,-1182.13 1337,-1182.13 1337,-1194.13 1337,-1194.13 1337,-1200.13 1331,-1206.13 1325,-1206.13"/>
<text text-anchor="middle" x="1246" y="-1191.13" font-family="Noto Sans Thai,Tahoma,Arial" font-size="10.00" fill="white">WI&#45;001</text>
<text text-anchor="middle" x="1246" y="-1180.13" font-family="Noto Sans Thai,Tahoma,Arial" font-size="10.00" fill="white">ขออัตรากำลัง</text>
</g>
<!-- PAO_WI001&#45;&gt;PAO_PM001 -->
<g id="edge2" class="edge">
<title>PAO_WI001&#45;&gt;PAO_PM001</title>
<path fill="none" stroke="#2e7d32" d="M1154.91,-1171.51C1101.45,-1162.32 1044.25,-1152.42 1044,-1152.13 1037.99,-1145.13 1036.54,-1135.48 1036.99,-1126.33"/>
<polygon fill="#2e7d32" stroke="#2e7d32" points="1040.47,-1126.73 1038.17,-1116.39 1033.52,-1125.91 1040.47,-1126.73"/>
<text text-anchor="middle" x="1117.5" y="-1145.73" font-family="Noto Sans Thai,Tahoma,Arial" font-size="8.00">ใบขออัตรากำลัง</text>
<text text-anchor="middle" x="1117.5" y="-1136.73" font-family="Noto Sans Thai,Tahoma,Arial" font-size="8.00">ที่ตรวจสอบแล้ว</text>
</g>
<!-- PAO_WI001&#45;&gt;PAO_WI002 -->
<g id="edge3" class="edge">
<title>PAO_WI001&#45;&gt;PAO_WI002</title>
<path fill="none" stroke="#2e7d32" d="M1231.53,-1170.13C1215.44,-1149.06 1193.18,-1112.03 1205,-1080.13 1211.66,-1062.17 1225.11,-1045.7 1237.7,-1033.15"/>
<polygon fill="#2e7d32" stroke="#2e7d32" points="1240.13,-1035.67 1244.95,-1026.23 1235.3,-1030.6 1240.13,-1035.67"/>
<text text-anchor="middle" x="1273.5" y="-1100.73" font-family="Noto Sans Thai,Tahoma,Arial" font-size="8.00">ข้อมูลตำแหน่ง</text>
<text text-anchor="middle" x="1273.5" y="-1091.73" font-family="Noto Sans Thai,Tahoma,Arial" font-size="8.00">+ คุณสมบัติ</text>
</g>
<!-- PAO_WI002&#45;&gt;PAO_WI003 -->
<g id="edge6" class="edge">
<title>PAO_WI002&#45;&gt;PAO_WI003</title>
<path fill="none" stroke="#2e7d32" d="M1266,-989.98C1266,-976.85 1266,-958.5 1266,-943.35"/>
<polygon fill="#2e7d32" stroke="#2e7d32" points="1269.5,-943 1266,-933 1262.5,-943 1269.5,-943"/>
<text text-anchor="middle" x="1349" y="-965.73" font-family="Noto Sans Thai,Tahoma,Arial" font-size="8.00">ผลสัมภาษณ์</text>
<text text-anchor="middle" x="1349" y="-956.73" font-family="Noto Sans Thai,Tahoma,Arial" font-size="8.00">ผู้ผ่านการคัดกรอง</text>
</g>
<!-- PAO_SD001 -->
<g id="node30" class="node">
<title>PAO_SD001</title>
<path fill="#e65100" stroke="black" d="M1479.5,-839.71C1479.5,-839.71 1254.5,-839.71 1254.5,-839.71 1248.5,-839.71 1242.5,-833.71 1242.5,-827.71 1242.5,-827.71 1242.5,-815.71 1242.5,-815.71 1242.5,-809.71 1248.5,-803.71 1254.5,-803.71 1254.5,-803.71 1479.5,-803.71 1479.5,-803.71 1485.5,-803.71 1491.5,-809.71 1491.5,-815.71 1491.5,-815.71 1491.5,-827.71 1491.5,-827.71 1491.5,-833.71 1485.5,-839.71 1479.5,-839.71"/>
<text text-anchor="middle" x="1367" y="-824.71" font-family="Noto Sans Thai,Tahoma,Arial" font-size="10.00" fill="white">SD&#45;001</text>
<text text-anchor="middle" x="1367" y="-813.71" font-family="Noto Sans Thai,Tahoma,Arial" font-size="10.00" fill="white">Script แจ้งก่อนเริ่มงาน</text>
</g>
<!-- PAO_WI003&#45;&gt;PAO_SD001 -->
<g id="edge7" class="edge">
<title>PAO_WI003&#45;&gt;PAO_SD001</title>
<path fill="none" stroke="#2e7d32" d="M1285,-896.76C1300.66,-882.62 1323.04,-862.4 1340.47,-846.66"/>
<polygon fill="#2e7d32" stroke="#2e7d32" points="1343.01,-849.09 1348.09,-839.79 1338.32,-843.89 1343.01,-849.09"/>
<text text-anchor="middle" x="1433.5" y="-869.31" font-family="Noto Sans Thai,Tahoma,Arial" font-size="8.00">รายชื่อผู้ผ่านคัดเลือก</text>
<text text-anchor="middle" x="1433.5" y="-860.31" font-family="Noto Sans Thai,Tahoma,Arial" font-size="8.00">+ ตำแหน่ง/วันเริ่มงาน</text>
</g>
<!-- PAO_WI004 -->
<g id="node11" class="node">
<title>PAO_WI004</title>
<path fill="#2e7d32" stroke="black" d="M1609.5,-548.71C1609.5,-548.71 1346.5,-548.71 1346.5,-548.71 1340.5,-548.71 1334.5,-542.71 1334.5,-536.71 1334.5,-536.71 1334.5,-524.71 1334.5,-524.71 1334.5,-518.71 1340.5,-512.71 1346.5,-512.71 1346.5,-512.71 1609.5,-512.71 1609.5,-512.71 1615.5,-512.71 1621.5,-518.71 1621.5,-524.71 1621.5,-524.71 1621.5,-536.71 1621.5,-536.71 1621.5,-542.71 1615.5,-548.71 1609.5,-548.71"/>
<text text-anchor="middle" x="1478" y="-533.71" font-family="Noto Sans Thai,Tahoma,Arial" font-size="10.00" fill="white">WI&#45;004</text>
<text text-anchor="middle" x="1478" y="-522.71" font-family="Noto Sans Thai,Tahoma,Arial" font-size="10.00" fill="white">โอนย้าย/เลื่อนตำแหน่ง</text>
</g>
<!-- PAO_WI004&#45;&gt;PAO_PM003 -->
<g id="edge20" class="edge">
<title>PAO_WI004&#45;&gt;PAO_PM003</title>
<path fill="none" stroke="#2e7d32" d="M1483.07,-512.51C1487.47,-500.62 1495.06,-485.43 1507,-476.71 1511.12,-473.7 1552.72,-465.44 1596.63,-457.37"/>
<polygon fill="#2e7d32" stroke="#2e7d32" points="1597.41,-460.78 1606.62,-455.54 1596.15,-453.9 1597.41,-460.78"/>
<text text-anchor="middle" x="1575.5" y="-488.31" font-family="Noto Sans Thai,Tahoma,Arial" font-size="8.00">สมาชิกโอนย้าย/</text>
<text text-anchor="middle" x="1575.5" y="-479.31" font-family="Noto Sans Thai,Tahoma,Arial" font-size="8.00">เลื่อนตำแหน่ง</text>
</g>
<!-- PAO_WI004&#45;&gt;PAO_WI016 -->
<g id="edge21" class="edge">
<title>PAO_WI004&#45;&gt;PAO_WI016</title>
<path fill="none" stroke="#2e7d32" d="M1453.12,-512.52C1423.14,-489.71 1379.75,-448.56 1405,-416.28 1424.98,-390.73 1493.13,-372.74 1559.33,-360.87"/>
<polygon fill="#2e7d32" stroke="#2e7d32" points="1560.25,-364.26 1569.5,-359.09 1559.05,-357.36 1560.25,-364.26"/>
<text text-anchor="middle" x="1498" y="-435.59" font-family="Noto Sans Thai,Tahoma,Arial" font-size="8.00">ประเมินผลการโอนย้าย</text>
</g>
<!-- PAO_WI007 -->
<g id="node13" class="node">
<title>PAO_WI007</title>
<path fill="#2e7d32" stroke="black" d="M1718,-932.92C1718,-932.92 1554,-932.92 1554,-932.92 1548,-932.92 1542,-926.92 1542,-920.92 1542,-920.92 1542,-908.92 1542,-908.92 1542,-902.92 1548,-896.92 1554,-896.92 1554,-896.92 1718,-896.92 1718,-896.92 1724,-896.92 1730,-902.92 1730,-908.92 1730,-908.92 1730,-920.92 1730,-920.92 1730,-926.92 1724,-932.92 1718,-932.92"/>
<text text-anchor="middle" x="1636" y="-917.92" font-family="Noto Sans Thai,Tahoma,Arial" font-size="10.00" fill="white">WI&#45;007</text>
<text text-anchor="middle" x="1636" y="-906.92" font-family="Noto Sans Thai,Tahoma,Arial" font-size="10.00" fill="white">รับต่างด้าว ตม.</text>
</g>
<!-- PAO_WI006&#45;&gt;PAO_WI007 -->
<g id="edge9" class="edge">
<title>PAO_WI006&#45;&gt;PAO_WI007</title>
<path fill="none" stroke="#2e7d32" d="M1566.18,-989.98C1579.39,-975.96 1598.23,-955.98 1613.01,-940.3"/>
<polygon fill="#2e7d32" stroke="#2e7d32" points="1615.58,-942.68 1619.9,-933 1610.49,-937.87 1615.58,-942.68"/>
<text text-anchor="middle" x="1671.5" y="-961.23" font-family="Noto Sans Thai,Tahoma,Arial" font-size="8.00">โควต้าที่ได้รับ</text>
</g>
<!-- PAO_WI008 -->
<g id="node14" class="node">
<title>PAO_WI008</title>
<path fill="#2e7d32" stroke="black" d="M1764,-839.71C1764,-839.71 1542,-839.71 1542,-839.71 1536,-839.71 1530,-833.71 1530,-827.71 1530,-827.71 1530,-815.71 1530,-815.71 1530,-809.71 1536,-803.71 1542,-803.71 1542,-803.71 1764,-803.71 1764,-803.71 1770,-803.71 1776,-809.71 1776,-815.71 1776,-815.71 1776,-827.71 1776,-827.71 1776,-833.71 1770,-839.71 1764,-839.71"/>
<text text-anchor="middle" x="1653" y="-824.71" font-family="Noto Sans Thai,Tahoma,Arial" font-size="10.00" fill="white">WI&#45;008</text>
<text text-anchor="middle" x="1653" y="-813.71" font-family="Noto Sans Thai,Tahoma,Arial" font-size="10.00" fill="white">ขอใบอนุญาตต่างด้าว</text>
</g>
<!-- PAO_WI007&#45;&gt;PAO_WI008 -->
<g id="edge10" class="edge">
<title>PAO_WI007&#45;&gt;PAO_WI008</title>
<path fill="none" stroke="#2e7d32" d="M1639.2,-896.76C1641.67,-883.51 1645.13,-864.93 1647.97,-849.69"/>
<polygon fill="#2e7d32" stroke="#2e7d32" points="1651.43,-850.26 1649.82,-839.79 1644.54,-848.97 1651.43,-850.26"/>
<text text-anchor="middle" x="1719.5" y="-869.31" font-family="Noto Sans Thai,Tahoma,Arial" font-size="8.00">คนงานที่รับแล้ว</text>
<text text-anchor="middle" x="1719.5" y="-860.31" font-family="Noto Sans Thai,Tahoma,Arial" font-size="8.00">+ เอกสาร</text>
</g>
<!-- PAO_WI011 -->
<g id="node16" class="node">
<title>PAO_WI011</title>
<path fill="#ff6f00" stroke="black" d="M1915.5,-749.71C1915.5,-749.71 1706.5,-749.71 1706.5,-749.71 1700.5,-749.71 1694.5,-743.71 1694.5,-737.71 1694.5,-737.71 1694.5,-725.71 1694.5,-725.71 1694.5,-719.71 1700.5,-713.71 1706.5,-713.71 1706.5,-713.71 1915.5,-713.71 1915.5,-713.71 1921.5,-713.71 1927.5,-719.71 1927.5,-725.71 1927.5,-725.71 1927.5,-737.71 1927.5,-737.71 1927.5,-743.71 1921.5,-749.71 1915.5,-749.71"/>
<text text-anchor="middle" x="1811" y="-734.71" font-family="Noto Sans Thai,Tahoma,Arial" font-size="10.00" fill="white">WI&#45;011</text>
<text text-anchor="middle" x="1811" y="-723.71" font-family="Noto Sans Thai,Tahoma,Arial" font-size="10.00" fill="white">นำสมาชิกเข้าระบบ</text>
</g>
<!-- PAO_WI008&#45;&gt;PAO_WI011 -->
<g id="edge11" class="edge">
<title>PAO_WI008&#45;&gt;PAO_WI011</title>
<path fill="none" stroke="#2e7d32" d="M1683.84,-803.53C1708.85,-789.6 1744.28,-769.87 1771.39,-754.77"/>
<polygon fill="#2e7d32" stroke="#2e7d32" points="1773.21,-757.76 1780.24,-749.84 1769.8,-751.65 1773.21,-757.76"/>
<text text-anchor="middle" x="1853.5" y="-779.31" font-family="Noto Sans Thai,Tahoma,Arial" font-size="8.00">ต่างด้าวที่ขึ้นทะเบียน</text>
<text text-anchor="middle" x="1853.5" y="-770.31" font-family="Noto Sans Thai,Tahoma,Arial" font-size="8.00">ครบถ้วน</text>
</g>
<!-- PAO_WI009 -->
<g id="node15" class="node">
<title>PAO_WI009</title>
<path fill="#2e7d32" stroke="black" d="M1758,-1206.13C1758,-1206.13 1574,-1206.13 1574,-1206.13 1568,-1206.13 1562,-1200.13 1562,-1194.13 1562,-1194.13 1562,-1182.13 1562,-1182.13 1562,-1176.13 1568,-1170.13 1574,-1170.13 1574,-1170.13 1758,-1170.13 1758,-1170.13 1764,-1170.13 1770,-1176.13 1770,-1182.13 1770,-1182.13 1770,-1194.13 1770,-1194.13 1770,-1200.13 1764,-1206.13 1758,-1206.13"/>
<text text-anchor="middle" x="1666" y="-1191.13" font-family="Noto Sans Thai,Tahoma,Arial" font-size="10.00" fill="white">WI&#45;009</text>
<text text-anchor="middle" x="1666" y="-1180.13" font-family="Noto Sans Thai,Tahoma,Arial" font-size="10.00" fill="white">โครงสร้างองค์กร</text>
</g>
<!-- PAO_WI018 -->
<g id="node23" class="node">
<title>PAO_WI018</title>
<path fill="#2e7d32" stroke="black" d="M1676.5,-1116.13C1676.5,-1116.13 1589.5,-1116.13 1589.5,-1116.13 1583.5,-1116.13 1577.5,-1110.13 1577.5,-1104.13 1577.5,-1104.13 1577.5,-1092.13 1577.5,-1092.13 1577.5,-1086.13 1583.5,-1080.13 1589.5,-1080.13 1589.5,-1080.13 1676.5,-1080.13 1676.5,-1080.13 1682.5,-1080.13 1688.5,-1086.13 1688.5,-1092.13 1688.5,-1092.13 1688.5,-1104.13 1688.5,-1104.13 1688.5,-1110.13 1682.5,-1116.13 1676.5,-1116.13"/>
<text text-anchor="middle" x="1633" y="-1101.13" font-family="Noto Sans Thai,Tahoma,Arial" font-size="10.00" fill="white">WI&#45;018</text>
<text text-anchor="middle" x="1633" y="-1090.13" font-family="Noto Sans Thai,Tahoma,Arial" font-size="10.00" fill="white">กำกับ LIA</text>
</g>
<!-- PAO_WI009&#45;&gt;PAO_WI018 -->
<g id="edge55" class="edge">
<title>PAO_WI009&#45;&gt;PAO_WI018</title>
<path fill="none" stroke="#2e7d32" d="M1659.48,-1169.75C1654.79,-1157.25 1648.39,-1140.17 1643.05,-1125.94"/>
<polygon fill="#2e7d32" stroke="#2e7d32" points="1646.18,-1124.32 1639.39,-1116.18 1639.63,-1126.77 1646.18,-1124.32"/>
<text text-anchor="middle" x="1715.5" y="-1145.73" font-family="Noto Sans Thai,Tahoma,Arial" font-size="8.00">โครงสร้างใหม่</text>
<text text-anchor="middle" x="1715.5" y="-1136.73" font-family="Noto Sans Thai,Tahoma,Arial" font-size="8.00">→ กำหนด LIA</text>
</g>
<!-- PAO_WI011&#45;&gt;PAO_PM003 -->
<g id="edge16" class="edge">
<title>PAO_WI011&#45;&gt;PAO_PM003</title>
<path fill="none" stroke="#ff6f00" d="M1811.24,-713.3C1810.54,-702.06 1807.93,-687.73 1800,-677.71 1753.14,-618.44 1686.56,-669.45 1646,-605.71 1616.88,-559.94 1655.5,-497.78 1682.29,-463.59"/>
<polygon fill="#ff6f00" stroke="#ff6f00" points="1685.24,-465.51 1688.79,-455.53 1679.79,-461.12 1685.24,-465.51"/>
<text text-anchor="middle" x="1714.5" y="-599.31" font-family="Noto Sans Thai,Tahoma,Arial" font-size="8.00">สมาชิกทดลองงาน</text>
<text text-anchor="middle" x="1714.5" y="-590.31" font-family="Noto Sans Thai,Tahoma,Arial" font-size="8.00">ต้องประเมิน</text>
</g>
<!-- PAO_WI012 -->
<g id="node17" class="node">
<title>PAO_WI012</title>
<path fill="#2e7d32" stroke="black" d="M1629,-659.71C1629,-659.71 1471,-659.71 1471,-659.71 1465,-659.71 1459,-653.71 1459,-647.71 1459,-647.71 1459,-635.71 1459,-635.71 1459,-629.71 1465,-623.71 1471,-623.71 1471,-623.71 1629,-623.71 1629,-623.71 1635,-623.71 1641,-629.71 1641,-635.71 1641,-635.71 1641,-647.71 1641,-647.71 1641,-653.71 1635,-659.71 1629,-659.71"/>
<text text-anchor="middle" x="1550" y="-644.71" font-family="Noto Sans Thai,Tahoma,Arial" font-size="10.00" fill="white">WI&#45;012</text>
<text text-anchor="middle" x="1550" y="-633.71" font-family="Noto Sans Thai,Tahoma,Arial" font-size="10.00" fill="white">ประเมินเครดิต</text>
</g>
<!-- PAO_WI011&#45;&gt;PAO_WI012 -->
<g id="edge14" class="edge">
<title>PAO_WI011&#45;&gt;PAO_WI012</title>
<path fill="none" stroke="#ff6f00" d="M1695.65,-713.63C1665.59,-708.18 1637.77,-701.93 1624,-695.71 1612.17,-690.36 1611.47,-685.38 1601,-677.71 1595.53,-673.69 1589.66,-669.53 1583.91,-665.54"/>
<polygon fill="#ff6f00" stroke="#ff6f00" points="1585.86,-662.63 1575.64,-659.84 1581.89,-668.4 1585.86,-662.63"/>
<text text-anchor="middle" x="1712" y="-689.31" font-family="Noto Sans Thai,Tahoma,Arial" font-size="8.00">ข้อมูลสมาชิก</text>
<text text-anchor="middle" x="1712" y="-680.31" font-family="Noto Sans Thai,Tahoma,Arial" font-size="8.00">เพื่อประเมินเครดิต</text>
</g>
<!-- PAO_WI013 -->
<g id="node18" class="node">
<title>PAO_WI013</title>
<path fill="#ff6f00" stroke="black" d="M1915.5,-659.71C1915.5,-659.71 1846.5,-659.71 1846.5,-659.71 1840.5,-659.71 1834.5,-653.71 1834.5,-647.71 1834.5,-647.71 1834.5,-635.71 1834.5,-635.71 1834.5,-629.71 1840.5,-623.71 1846.5,-623.71 1846.5,-623.71 1915.5,-623.71 1915.5,-623.71 1921.5,-623.71 1927.5,-629.71 1927.5,-635.71 1927.5,-635.71 1927.5,-647.71 1927.5,-647.71 1927.5,-653.71 1921.5,-659.71 1915.5,-659.71"/>
<text text-anchor="middle" x="1881" y="-644.71" font-family="Noto Sans Thai,Tahoma,Arial" font-size="10.00" fill="white">WI&#45;013</text>
<text text-anchor="middle" x="1881" y="-633.71" font-family="Noto Sans Thai,Tahoma,Arial" font-size="10.00" fill="white">ลงเวลา</text>
</g>
<!-- PAO_WI011&#45;&gt;PAO_WI013 -->
<g id="edge13" class="edge">
<title>PAO_WI011&#45;&gt;PAO_WI013</title>
<path fill="none" stroke="#ff6f00" d="M1824.83,-713.32C1835.15,-700.34 1849.42,-682.41 1860.99,-667.87"/>
<polygon fill="#ff6f00" stroke="#ff6f00" points="1863.95,-669.76 1867.44,-659.76 1858.47,-665.4 1863.95,-669.76"/>
<text text-anchor="middle" x="1901" y="-689.31" font-family="Noto Sans Thai,Tahoma,Arial" font-size="8.00">สมาชิกใหม่</text>
<text text-anchor="middle" x="1901" y="-680.31" font-family="Noto Sans Thai,Tahoma,Arial" font-size="8.00">ต้องลงเวลา</text>
</g>
<!-- PAD_PM001 -->
<g id="node34" class="node">
<title>PAD_PM001</title>
<path fill="#1565c0" stroke="black" d="M3128.5,-548.71C3128.5,-548.71 2893.5,-548.71 2893.5,-548.71 2887.5,-548.71 2881.5,-542.71 2881.5,-536.71 2881.5,-536.71 2881.5,-524.71 2881.5,-524.71 2881.5,-518.71 2887.5,-512.71 2893.5,-512.71 2893.5,-512.71 3128.5,-512.71 3128.5,-512.71 3134.5,-512.71 3140.5,-518.71 3140.5,-524.71 3140.5,-524.71 3140.5,-536.71 3140.5,-536.71 3140.5,-542.71 3134.5,-548.71 3128.5,-548.71"/>
<text text-anchor="middle" x="3011" y="-533.71" font-family="Noto Sans Thai,Tahoma,Arial" font-size="10.00" fill="white">PM&#45;001</text>
<text text-anchor="middle" x="3011" y="-522.71" font-family="Noto Sans Thai,Tahoma,Arial" font-size="10.00" fill="white">พี่เลี้ยงน้องเลี้ยง</text>
</g>
<!-- PAO_WI011&#45;&gt;PAD_PM001 -->
<g id="edge15" class="edge">
<title>PAO_WI011&#45;&gt;PAD_PM001</title>
<path fill="none" stroke="#ff6f00" d="M1927.77,-721.44C2124.65,-704.19 2534.25,-661.26 2872,-579.71 2901.27,-572.64 2933.07,-561.9 2958.86,-552.36"/>
<polygon fill="#ff6f00" stroke="#ff6f00" points="2960.29,-555.56 2968.43,-548.78 2957.84,-549.01 2960.29,-555.56"/>
<text text-anchor="middle" x="2743.5" y="-644.31" font-family="Noto Sans Thai,Tahoma,Arial" font-size="8.00">สมาชิกใหม่</text>
<text text-anchor="middle" x="2743.5" y="-635.31" font-family="Noto Sans Thai,Tahoma,Arial" font-size="8.00">ต้องได้พี่เลี้ยง</text>
</g>
<!-- PAO_WI012&#45;&gt;PAO_WI004 -->
<g id="edge68" class="edge">
<title>PAO_WI012&#45;&gt;PAO_WI004</title>
<path fill="none" stroke="#2e7d32" stroke-dasharray="5,2" d="M1497.66,-623.5C1490.27,-618.86 1483.62,-613.03 1479,-605.71 1470.39,-592.07 1469.98,-574.01 1471.81,-559.15"/>
<polygon fill="#2e7d32" stroke="#2e7d32" points="1475.3,-559.43 1473.44,-549 1468.39,-558.32 1475.3,-559.43"/>
<text text-anchor="middle" x="1553" y="-599.31" font-family="Noto Sans Thai,Tahoma,Arial" font-size="8.00">ผลประเมินเครดิต</text>
<text text-anchor="middle" x="1553" y="-590.31" font-family="Noto Sans Thai,Tahoma,Arial" font-size="8.00">→ พิจารณาโอนย้าย</text>
</g>
<!-- PAO_WI014 -->
<g id="node19" class="node">
<title>PAO_WI014</title>
<path fill="#2e7d32" stroke="black" d="M1904.5,-548.71C1904.5,-548.71 1733.5,-548.71 1733.5,-548.71 1727.5,-548.71 1721.5,-542.71 1721.5,-536.71 1721.5,-536.71 1721.5,-524.71 1721.5,-524.71 1721.5,-518.71 1727.5,-512.71 1733.5,-512.71 1733.5,-512.71 1904.5,-512.71 1904.5,-512.71 1910.5,-512.71 1916.5,-518.71 1916.5,-524.71 1916.5,-524.71 1916.5,-536.71 1916.5,-536.71 1916.5,-542.71 1910.5,-548.71 1904.5,-548.71"/>
<text text-anchor="middle" x="1819" y="-533.71" font-family="Noto Sans Thai,Tahoma,Arial" font-size="10.00" fill="white">WI&#45;014</text>
<text text-anchor="middle" x="1819" y="-522.71" font-family="Noto Sans Thai,Tahoma,Arial" font-size="10.00" fill="white">เก็บแบบประเมิน</text>
</g>
<!-- PAO_WI012&#45;&gt;PAO_WI014 -->
<g id="edge24" class="edge">
<title>PAO_WI012&#45;&gt;PAO_WI014</title>
<path fill="none" stroke="#2e7d32" d="M1641.06,-636.32C1697.87,-631.89 1764.36,-623.08 1787,-605.71 1801.76,-594.38 1809.81,-574.87 1814.15,-558.73"/>
<polygon fill="#2e7d32" stroke="#2e7d32" points="1817.62,-559.26 1816.5,-548.73 1810.81,-557.66 1817.62,-559.26"/>
<text text-anchor="middle" x="1861" y="-599.31" font-family="Noto Sans Thai,Tahoma,Arial" font-size="8.00">แบบประเมินผล</text>
<text text-anchor="middle" x="1861" y="-590.31" font-family="Noto Sans Thai,Tahoma,Arial" font-size="8.00">รายบุคคล</text>
</g>
<!-- PAD_PM004 -->
<g id="node36" class="node">
<title>PAD_PM004</title>
<path fill="#1565c0" stroke="black" d="M2069,-548.71C2069,-548.71 1963,-548.71 1963,-548.71 1957,-548.71 1951,-542.71 1951,-536.71 1951,-536.71 1951,-524.71 1951,-524.71 1951,-518.71 1957,-512.71 1963,-512.71 1963,-512.71 2069,-512.71 2069,-512.71 2075,-512.71 2081,-518.71 2081,-524.71 2081,-524.71 2081,-536.71 2081,-536.71 2081,-542.71 2075,-548.71 2069,-548.71"/>
<text text-anchor="middle" x="2016" y="-533.71" font-family="Noto Sans Thai,Tahoma,Arial" font-size="10.00" fill="white">PM&#45;004</text>
<text text-anchor="middle" x="2016" y="-522.71" font-family="Noto Sans Thai,Tahoma,Arial" font-size="10.00" fill="white">ระบบ 3 ผ่าน</text>
</g>
<!-- PAO_WI012&#45;&gt;PAD_PM004 -->
<g id="edge22" class="edge">
<title>PAO_WI012&#45;&gt;PAD_PM004</title>
<path fill="none" stroke="#2e7d32" d="M1641.38,-634.91C1743.65,-628 1898.47,-616.06 1924,-605.71 1950.85,-594.81 1976.1,-573.39 1993.33,-556.38"/>
<polygon fill="#2e7d32" stroke="#2e7d32" points="1996.14,-558.52 2000.66,-548.94 1991.15,-553.61 1996.14,-558.52"/>
<text text-anchor="middle" x="2027.5" y="-599.31" font-family="Noto Sans Thai,Tahoma,Arial" font-size="8.00">ผลประเมินเครดิต</text>
<text text-anchor="middle" x="2027.5" y="-590.31" font-family="Noto Sans Thai,Tahoma,Arial" font-size="8.00">→ วางแผน 3 ผ่าน</text>
</g>
<!-- PAD_PM005 -->
<g id="node37" class="node">
<title>PAD_PM005</title>
<path fill="#1565c0" stroke="black" d="M2612,-455.49C2612,-455.49 2466,-455.49 2466,-455.49 2460,-455.49 2454,-449.49 2454,-443.49 2454,-443.49 2454,-431.49 2454,-431.49 2454,-425.49 2460,-419.49 2466,-419.49 2466,-419.49 2612,-419.49 2612,-419.49 2618,-419.49 2624,-425.49 2624,-431.49 2624,-431.49 2624,-443.49 2624,-443.49 2624,-449.49 2618,-455.49 2612,-455.49"/>
<text text-anchor="middle" x="2539" y="-440.49" font-family="Noto Sans Thai,Tahoma,Arial" font-size="10.00" fill="white">PM&#45;005</text>
<text text-anchor="middle" x="2539" y="-429.49" font-family="Noto Sans Thai,Tahoma,Arial" font-size="10.00" fill="white">วัดทุนองค์กร</text>
</g>
<!-- PAO_WI012&#45;&gt;PAD_PM005 -->
<g id="edge23" class="edge">
<title>PAO_WI012&#45;&gt;PAD_PM005</title>
<path fill="none" stroke="#2e7d32" d="M1641.01,-634.2C1694.8,-630.58 1764.24,-626.3 1826,-623.71 1899.53,-620.62 3099.28,-633.04 3150,-579.71 3170.52,-558.13 3169.75,-535 3150,-512.71 3149.73,-512.41 2806,-470.79 2634.29,-450.02"/>
<polygon fill="#2e7d32" stroke="#2e7d32" points="2634.58,-446.53 2624.23,-448.8 2633.74,-453.48 2634.58,-446.53"/>
<text text-anchor="middle" x="3239.5" y="-533.31" font-family="Noto Sans Thai,Tahoma,Arial" font-size="8.00">ข้อมูลทุนองค์กร/</text>
<text text-anchor="middle" x="3239.5" y="-524.31" font-family="Noto Sans Thai,Tahoma,Arial" font-size="8.00">ทุนมนุษย์</text>
</g>
<!-- PAD_FM001 -->
<g id="node49" class="node">
<title>PAD_FM001</title>
<path fill="#6a1b9a" stroke="black" d="M2624.5,-548.71C2624.5,-548.71 2541.5,-548.71 2541.5,-548.71 2535.5,-548.71 2529.5,-542.71 2529.5,-536.71 2529.5,-536.71 2529.5,-524.71 2529.5,-524.71 2529.5,-518.71 2535.5,-512.71 2541.5,-512.71 2541.5,-512.71 2624.5,-512.71 2624.5,-512.71 2630.5,-512.71 2636.5,-518.71 2636.5,-524.71 2636.5,-524.71 2636.5,-536.71 2636.5,-536.71 2636.5,-542.71 2630.5,-548.71 2624.5,-548.71"/>
<text text-anchor="middle" x="2583" y="-533.71" font-family="Noto Sans Thai,Tahoma,Arial" font-size="10.00" fill="white">FM&#45;001</text>
<text text-anchor="middle" x="2583" y="-522.71" font-family="Noto Sans Thai,Tahoma,Arial" font-size="10.00" fill="white">Communication Plan</text>
</g>
<!-- PAO_WI013&#45;&gt;PAD_FM001 -->
<g id="edge62" class="edge">
<title>PAO_WI013&#45;&gt;PAD_FM001</title>
<path fill="none" stroke="#ff6f00" d="M1927.66,-639.56C2055.98,-635.88 2411.82,-622.06 2520,-579.71 2533.98,-574.23 2547.49,-564.7 2558.4,-555.56"/>
<polygon fill="#ff6f00" stroke="#ff6f00" points="2560.98,-557.95 2566.19,-548.73 2556.36,-552.69 2560.98,-557.95"/>
<text text-anchor="middle" x="2560.5" y="-599.31" font-family="Noto Sans Thai,Tahoma,Arial" font-size="8.00">ข้อมูลเข้าอบรม</text>
<text text-anchor="middle" x="2560.5" y="-590.31" font-family="Noto Sans Thai,Tahoma,Arial" font-size="8.00">(Communication Plan)</text>
</g>
<!-- WCD_WI001 -->
<g id="node50" class="node">
<title>WCD_WI001</title>
<path fill="#c62828" stroke="black" d="M4241.5,-244.85C4241.5,-244.85 4032.5,-244.85 4032.5,-244.85 4026.5,-244.85 4020.5,-238.85 4020.5,-232.85 4020.5,-232.85 4020.5,-220.85 4020.5,-220.85 4020.5,-214.85 4026.5,-208.85 4032.5,-208.85 4032.5,-208.85 4241.5,-208.85 4241.5,-208.85 4247.5,-208.85 4253.5,-214.85 4253.5,-220.85 4253.5,-220.85 4253.5,-232.85 4253.5,-232.85 4253.5,-238.85 4247.5,-244.85 4241.5,-244.85"/>
<text text-anchor="middle" x="4137" y="-229.85" font-family="Noto Sans Thai,Tahoma,Arial" font-size="10.00" fill="white">WI&#45;001</text>
<text text-anchor="middle" x="4137" y="-218.85" font-family="Noto Sans Thai,Tahoma,Arial" font-size="10.00" fill="white">เบี้ยเลี้ยงฝึกงาน</text>
</g>
<!-- PAO_WI013&#45;&gt;WCD_WI001 -->
<g id="edge37" class="edge">
<title>PAO_WI013&#45;&gt;WCD_WI001</title>
<path fill="none" stroke="#ff6f00" d="M1927.83,-639.17C2025.1,-636.01 2256.11,-628.66 2450,-623.71 2638.2,-618.89 3109.7,-624.76 3297,-605.71 3477.04,-587.39 3970.94,-587.57 4098,-458.71 4152.26,-403.68 4147.43,-303.06 4141.36,-254.92"/>
<polygon fill="#ff6f00" stroke="#ff6f00" points="4144.82,-254.36 4139.99,-244.94 4137.88,-255.32 4144.82,-254.36"/>
<text text-anchor="middle" x="4186" y="-440.09" font-family="Noto Sans Thai,Tahoma,Arial" font-size="8.00">ลงเวลาฝึกงาน/</text>
<text text-anchor="middle" x="4186" y="-431.09" font-family="Noto Sans Thai,Tahoma,Arial" font-size="8.00">รายวัน</text>
</g>
<!-- WCD_WI003 -->
<g id="node52" class="node">
<title>WCD_WI003</title>
<path fill="#c62828" stroke="black" d="M3990,-244.85C3990,-244.85 3832,-244.85 3832,-244.85 3826,-244.85 3820,-238.85 3820,-232.85 3820,-232.85 3820,-220.85 3820,-220.85 3820,-214.85 3826,-208.85 3832,-208.85 3832,-208.85 3990,-208.85 3990,-208.85 3996,-208.85 4002,-214.85 4002,-220.85 4002,-220.85 4002,-232.85 4002,-232.85 4002,-238.85 3996,-244.85 3990,-244.85"/>
<text text-anchor="middle" x="3911" y="-229.85" font-family="Noto Sans Thai,Tahoma,Arial" font-size="10.00" fill="white">WI&#45;003</text>
<text text-anchor="middle" x="3911" y="-218.85" font-family="Noto Sans Thai,Tahoma,Arial" font-size="10.00" fill="white">เบิกสวัสดิการ</text>
</g>
<!-- PAO_WI013&#45;&gt;WCD_WI003 -->
<g id="edge38" class="edge">
<title>PAO_WI013&#45;&gt;WCD_WI003</title>
<path fill="none" stroke="#ff6f00" d="M1927.83,-639.03C2025.1,-635.61 2256.09,-627.8 2450,-623.71 2490.33,-622.85 3867.44,-626.5 3902,-605.71 3953.64,-574.64 3967,-546.97 3967,-486.71 3967,-486.71 3967,-486.71 3967,-340.07 3967,-307.58 3947.98,-274.85 3932.11,-253.19"/>
<polygon fill="#ff6f00" stroke="#ff6f00" points="3934.85,-251.01 3926.01,-245.17 3929.28,-255.25 3934.85,-251.01"/>
<text text-anchor="middle" x="4030.5" y="-440.09" font-family="Noto Sans Thai,Tahoma,Arial" font-size="8.00">ตรวจสอบสิทธิ์</text>
<text text-anchor="middle" x="4030.5" y="-431.09" font-family="Noto Sans Thai,Tahoma,Arial" font-size="8.00">เบิกสวัสดิการ</text>
</g>
<!-- WCD_WI004 -->
<g id="node53" class="node">
<title>WCD_WI004</title>
<path fill="#c62828" stroke="black" d="M3628,-244.85C3628,-244.85 3470,-244.85 3470,-244.85 3464,-244.85 3458,-238.85 3458,-232.85 3458,-232.85 3458,-220.85 3458,-220.85 3458,-214.85 3464,-208.85 3470,-208.85 3470,-208.85 3628,-208.85 3628,-208.85 3634,-208.85 3640,-214.85 3640,-220.85 3640,-220.85 3640,-232.85 3640,-232.85 3640,-238.85 3634,-244.85 3628,-244.85"/>
<text text-anchor="middle" x="3549" y="-229.85" font-family="Noto Sans Thai,Tahoma,Arial" font-size="10.00" fill="white">WI&#45;004</text>
<text text-anchor="middle" x="3549" y="-218.85" font-family="Noto Sans Thai,Tahoma,Arial" font-size="10.00" fill="white">จ่ายเงินเดือน</text>
</g>
<!-- PAO_WI013&#45;&gt;WCD_WI004 -->
<g id="edge36" class="edge">
<title>PAO_WI013&#45;&gt;WCD_WI004</title>
<path fill="none" stroke="#ff6f00" d="M1927.83,-639.19C2025.11,-636.08 2256.12,-628.81 2450,-623.71 2625.76,-619.08 3066.7,-628.78 3241,-605.71 3289.09,-599.34 3301.75,-597.17 3347,-579.71 3421.02,-551.13 3463.39,-562.87 3504,-494.71 3510.33,-484.08 3512.99,-463.57 3499,-416.28 3491.27,-390.16 3476.65,-388.7 3470,-362.28 3465.4,-343.99 3463.45,-337.53 3470,-319.85 3479.98,-292.91 3501.78,-268.54 3519.95,-251.66"/>
<polygon fill="#ff6f00" stroke="#ff6f00" points="3522.38,-254.19 3527.48,-244.9 3517.7,-248.98 3522.38,-254.19"/>
<text text-anchor="middle" x="3567" y="-440.09" font-family="Noto Sans Thai,Tahoma,Arial" font-size="8.00">ข้อมูลลงเวลา</text>
<text text-anchor="middle" x="3567" y="-431.09" font-family="Noto Sans Thai,Tahoma,Arial" font-size="8.00">(ลา/หักเงิน)</text>
</g>
<!-- PAO_WI014&#45;&gt;PAD_PM005 -->
<g id="edge69" class="edge">
<title>PAO_WI014&#45;&gt;PAD_PM005</title>
<path fill="none" stroke="#2e7d32" stroke-dasharray="5,2" d="M1850.04,-512.64C1874.49,-500.14 1909.87,-484.12 1943,-476.71 2049.55,-452.85 2325.52,-471.06 2434,-458.71 2438.25,-458.22 2442.59,-457.66 2446.97,-457.04"/>
<polygon fill="#2e7d32" stroke="#2e7d32" points="2447.85,-460.45 2457.22,-455.49 2446.81,-453.52 2447.85,-460.45"/>
<text text-anchor="middle" x="2007" y="-488.31" font-family="Noto Sans Thai,Tahoma,Arial" font-size="8.00">แบบประเมินผล</text>
<text text-anchor="middle" x="2007" y="-479.31" font-family="Noto Sans Thai,Tahoma,Arial" font-size="8.00">→ วัดทุนมนุษย์</text>
</g>
<!-- PAO_WI015 -->
<g id="node20" class="node">
<title>PAO_WI015</title>
<path fill="#2e7d32" stroke="black" d="M1766.5,-244.85C1766.5,-244.85 1671.5,-244.85 1671.5,-244.85 1665.5,-244.85 1659.5,-238.85 1659.5,-232.85 1659.5,-232.85 1659.5,-220.85 1659.5,-220.85 1659.5,-214.85 1665.5,-208.85 1671.5,-208.85 1671.5,-208.85 1766.5,-208.85 1766.5,-208.85 1772.5,-208.85 1778.5,-214.85 1778.5,-220.85 1778.5,-220.85 1778.5,-232.85 1778.5,-232.85 1778.5,-238.85 1772.5,-244.85 1766.5,-244.85"/>
<text text-anchor="middle" x="1719" y="-229.85" font-family="Noto Sans Thai,Tahoma,Arial" font-size="10.00" fill="white">WI&#45;015</text>
<text text-anchor="middle" x="1719" y="-218.85" font-family="Noto Sans Thai,Tahoma,Arial" font-size="10.00" fill="white">แบบบรรจุ</text>
</g>
<!-- PAO_WI017 -->
<g id="node22" class="node">
<title>PAO_WI017</title>
<path fill="#ff6f00" stroke="black" d="M1915,-148.43C1915,-148.43 1757,-148.43 1757,-148.43 1751,-148.43 1745,-142.43 1745,-136.43 1745,-136.43 1745,-124.43 1745,-124.43 1745,-118.43 1751,-112.43 1757,-112.43 1757,-112.43 1915,-112.43 1915,-112.43 1921,-112.43 1927,-118.43 1927,-124.43 1927,-124.43 1927,-136.43 1927,-136.43 1927,-142.43 1921,-148.43 1915,-148.43"/>
<text text-anchor="middle" x="1836" y="-133.43" font-family="Noto Sans Thai,Tahoma,Arial" font-size="10.00" fill="white">WI&#45;017</text>
<text text-anchor="middle" x="1836" y="-122.43" font-family="Noto Sans Thai,Tahoma,Arial" font-size="10.00" fill="white">คีย์เงินเดือน</text>
</g>
<!-- PAO_WI015&#45;&gt;PAO_WI017 -->
<g id="edge19" class="edge">
<title>PAO_WI015&#45;&gt;PAO_WI017</title>
<path fill="none" stroke="#2e7d32" d="M1733.33,-208.73C1743.66,-196.96 1758.32,-181.4 1773,-169.64 1779.89,-164.12 1787.64,-158.8 1795.29,-153.97"/>
<polygon fill="#2e7d32" stroke="#2e7d32" points="1797.46,-156.75 1804.17,-148.55 1793.81,-150.78 1797.46,-156.75"/>
<text text-anchor="middle" x="1856" y="-181.24" font-family="Noto Sans Thai,Tahoma,Arial" font-size="8.00">ข้อมูลสมาชิกบรรจุ</text>
<text text-anchor="middle" x="1856" y="-172.24" font-family="Noto Sans Thai,Tahoma,Arial" font-size="8.00">เงินเดือนเริ่มต้น</text>
</g>
<!-- PAO_WI016&#45;&gt;PAO_WI015 -->
<g id="edge18" class="edge">
<title>PAO_WI016&#45;&gt;PAO_WI015</title>
<path fill="none" stroke="#2e7d32" d="M1706.28,-323.02C1708.69,-304.98 1712.53,-276.24 1715.36,-255.06"/>
<polygon fill="#2e7d32" stroke="#2e7d32" points="1718.84,-255.43 1716.7,-245.06 1711.91,-254.5 1718.84,-255.43"/>
<text text-anchor="middle" x="1765" y="-295.45" font-family="Noto Sans Thai,Tahoma,Arial" font-size="8.00">ประเมินผ่าน</text>
<text text-anchor="middle" x="1765" y="-286.45" font-family="Noto Sans Thai,Tahoma,Arial" font-size="8.00">→ บรรจุ</text>
</g>
<!-- PAO_WI017&#45;&gt;WCD_WI004 -->
<g id="edge35" class="edge">
<title>PAO_WI017&#45;&gt;WCD_WI004</title>
<path fill="none" stroke="#ff6f00" d="M1915.35,-148.47C1923.31,-149.74 1931.3,-150.83 1939,-151.64 2006.09,-158.66 3089.4,-147.18 3153,-169.64 3165.24,-173.96 3163.96,-182.79 3176,-187.64 3223.7,-206.86 3354.59,-216.91 3447.82,-221.79"/>
<polygon fill="#ff6f00" stroke="#ff6f00" points="3447.69,-225.29 3457.86,-222.3 3448.05,-218.3 3447.69,-225.29"/>
<text text-anchor="middle" x="3249.5" y="-181.24" font-family="Noto Sans Thai,Tahoma,Arial" font-size="8.00">ข้อมูลเงินเดือน</text>
<text text-anchor="middle" x="3249.5" y="-172.24" font-family="Noto Sans Thai,Tahoma,Arial" font-size="8.00">สมาชิกทุกคน</text>
</g>
<!-- PAO_WI019 -->
<g id="node24" class="node">
<title>PAO_WI019</title>
<path fill="#2e7d32" stroke="black" d="M1826,-1026.13C1826,-1026.13 1706,-1026.13 1706,-1026.13 1700,-1026.13 1694,-1020.13 1694,-1014.13 1694,-1014.13 1694,-1002.13 1694,-1002.13 1694,-996.13 1700,-990.13 1706,-990.13 1706,-990.13 1826,-990.13 1826,-990.13 1832,-990.13 1838,-996.13 1838,-1002.13 1838,-1002.13 1838,-1014.13 1838,-1014.13 1838,-1020.13 1832,-1026.13 1826,-1026.13"/>
<text text-anchor="middle" x="1766" y="-1011.13" font-family="Noto Sans Thai,Tahoma,Arial" font-size="10.00" fill="white">WI&#45;019</text>
<text text-anchor="middle" x="1766" y="-1000.13" font-family="Noto Sans Thai,Tahoma,Arial" font-size="10.00" fill="white">ทบทวนสิทธิ</text>
</g>
<!-- PAO_WI018&#45;&gt;PAO_WI019 -->
<g id="edge56" class="edge">
<title>PAO_WI018&#45;&gt;PAO_WI019</title>
<path fill="none" stroke="#2e7d32" d="M1669.79,-1079.97C1680.13,-1074.67 1691.22,-1068.53 1701,-1062.13 1714.23,-1053.47 1727.94,-1042.61 1739.34,-1032.99"/>
<polygon fill="#2e7d32" stroke="#2e7d32" points="1741.88,-1035.42 1747.19,-1026.24 1737.32,-1030.11 1741.88,-1035.42"/>
<text text-anchor="middle" x="1781" y="-1055.73" font-family="Noto Sans Thai,Tahoma,Arial" font-size="8.00">LIA กำหนดแล้ว</text>
<text text-anchor="middle" x="1781" y="-1046.73" font-family="Noto Sans Thai,Tahoma,Arial" font-size="8.00">→ ทบทวนสิทธิ</text>
</g>
<!-- ext_IT -->
<g id="node61" class="node">
<title>ext_IT</title>
<ellipse fill="#ffe082" stroke="black" cx="2042" cy="-914.92" rx="98.99" ry="21.43"/>
<text text-anchor="middle" x="2042" y="-917.92" font-family="Noto Sans Thai,Tahoma,Arial" font-size="10.00" fill="#000000">IT</text>
<text text-anchor="middle" x="2042" y="-906.92" font-family="Noto Sans Thai,Tahoma,Arial" font-size="10.00" fill="#000000">(ระบบ/สิทธิ)</text>
</g>
<!-- PAO_WI019&#45;&gt;ext_IT -->
<g id="edge57" class="edge">
<title>PAO_WI019&#45;&gt;ext_IT</title>
<path fill="none" stroke="#2e7d32" d="M1791.59,-990.06C1810.15,-978.39 1836.24,-963.41 1861,-954.13 1870.82,-950.45 1917.74,-940.58 1961.35,-931.79"/>
<polygon fill="#2e7d32" stroke="#2e7d32" points="1962.05,-935.22 1971.17,-929.82 1960.67,-928.36 1962.05,-935.22"/>
<text text-anchor="middle" x="1924.5" y="-965.73" font-family="Noto Sans Thai,Tahoma,Arial" font-size="8.00">ปรับปรุงสิทธิ</text>
<text text-anchor="middle" x="1924.5" y="-956.73" font-family="Noto Sans Thai,Tahoma,Arial" font-size="8.00">ผู้ใช้งานระบบ</text>
</g>
<!-- PAO_WI020 -->
<g id="node25" class="node">
<title>PAO_WI020</title>
<path fill="#2e7d32" stroke="black" d="M1915.5,-1116.13C1915.5,-1116.13 1718.5,-1116.13 1718.5,-1116.13 1712.5,-1116.13 1706.5,-1110.13 1706.5,-1104.13 1706.5,-1104.13 1706.5,-1092.13 1706.5,-1092.13 1706.5,-1086.13 1712.5,-1080.13 1718.5,-1080.13 1718.5,-1080.13 1915.5,-1080.13 1915.5,-1080.13 1921.5,-1080.13 1927.5,-1086.13 1927.5,-1092.13 1927.5,-1092.13 1927.5,-1104.13 1927.5,-1104.13 1927.5,-1110.13 1921.5,-1116.13 1915.5,-1116.13"/>
<text text-anchor="middle" x="1817" y="-1101.13" font-family="Noto Sans Thai,Tahoma,Arial" font-size="10.00" fill="white">WI&#45;020</text>
<text text-anchor="middle" x="1817" y="-1090.13" font-family="Noto Sans Thai,Tahoma,Arial" font-size="10.00" fill="white">ยกเลิกสิทธิลาออก</text>
</g>
<!-- PAO_WI020&#45;&gt;ext_IT -->
<g id="edge58" class="edge">
<title>PAO_WI020&#45;&gt;ext_IT</title>
<path fill="none" stroke="#2e7d32" d="M1843.27,-1080.03C1877.79,-1057.1 1939.69,-1014.37 1988,-972.13 1998.13,-963.28 2008.54,-952.82 2017.48,-943.34"/>
<polygon fill="#2e7d32" stroke="#2e7d32" points="2020.06,-945.71 2024.3,-936 2014.93,-940.95 2020.06,-945.71"/>
<text text-anchor="middle" x="2028.5" y="-1010.73" font-family="Noto Sans Thai,Tahoma,Arial" font-size="8.00">ยกเลิกสิทธิ</text>
<text text-anchor="middle" x="2028.5" y="-1001.73" font-family="Noto Sans Thai,Tahoma,Arial" font-size="8.00">สมาชิกพ้นสภาพ</text>
</g>
<!-- PAO_WI021 -->
<g id="node26" class="node">
<title>PAO_WI021</title>
<path fill="#2e7d32" stroke="black" d="M1664.5,-749.71C1664.5,-749.71 1429.5,-749.71 1429.5,-749.71 1423.5,-749.71 1417.5,-743.71 1417.5,-737.71 1417.5,-737.71 1417.5,-725.71 1417.5,-725.71 1417.5,-719.71 1423.5,-713.71 1429.5,-713.71 1429.5,-713.71 1664.5,-713.71 1664.5,-713.71 1670.5,-713.71 1676.5,-719.71 1676.5,-725.71 1676.5,-725.71 1676.5,-737.71 1676.5,-737.71 1676.5,-743.71 1670.5,-749.71 1664.5,-749.71"/>
<text text-anchor="middle" x="1547" y="-734.71" font-family="Noto Sans Thai,Tahoma,Arial" font-size="10.00" fill="white">WI&#45;021</text>
<text text-anchor="middle" x="1547" y="-723.71" font-family="Noto Sans Thai,Tahoma,Arial" font-size="10.00" fill="white">ขออุปกรณ์เคลื่อนที่</text>
</g>
<!-- PAO_WI021&#45;&gt;PAO_WI012 -->
<g id="edge59" class="edge">
<title>PAO_WI021&#45;&gt;PAO_WI012</title>
<path fill="none" stroke="#2e7d32" d="M1465.44,-713.68C1445.23,-705.54 1432.28,-693.92 1444,-677.71 1447.34,-673.09 1451.3,-669.08 1455.71,-665.58"/>
<polygon fill="#2e7d32" stroke="#2e7d32" points="1457.81,-668.38 1464.08,-659.84 1453.85,-662.61 1457.81,-668.38"/>
<text text-anchor="middle" x="1522.5" y="-689.31" font-family="Noto Sans Thai,Tahoma,Arial" font-size="8.00">ประวัติขออุปกรณ์</text>
<text text-anchor="middle" x="1522.5" y="-680.31" font-family="Noto Sans Thai,Tahoma,Arial" font-size="8.00">เคลื่อนที่</text>
</g>
<!-- PAO_WI022 -->
<g id="node27" class="node">
<title>PAO_WI022</title>
<path fill="#2e7d32" stroke="black" d="M1387,-749.71C1387,-749.71 1267,-749.71 1267,-749.71 1261,-749.71 1255,-743.71 1255,-737.71 1255,-737.71 1255,-725.71 1255,-725.71 1255,-719.71 1261,-713.71 1267,-713.71 1267,-713.71 1387,-713.71 1387,-713.71 1393,-713.71 1399,-719.71 1399,-725.71 1399,-725.71 1399,-737.71 1399,-737.71 1399,-743.71 1393,-749.71 1387,-749.71"/>
<text text-anchor="middle" x="1327" y="-734.71" font-family="Noto Sans Thai,Tahoma,Arial" font-size="10.00" fill="white">WI&#45;022</text>
<text text-anchor="middle" x="1327" y="-723.71" font-family="Noto Sans Thai,Tahoma,Arial" font-size="10.00" fill="white">ใบขออนุญาต</text>
</g>
<!-- PAO_WI022&#45;&gt;PAO_WI012 -->
<g id="edge60" class="edge">
<title>PAO_WI022&#45;&gt;PAO_WI012</title>
<path fill="none" stroke="#2e7d32" d="M1302.25,-713.61C1289.73,-702.9 1279.08,-689.04 1289,-677.71 1309.82,-653.9 1384.37,-645.61 1448.49,-643.01"/>
<polygon fill="#2e7d32" stroke="#2e7d32" points="1448.81,-646.5 1458.68,-642.64 1448.56,-639.5 1448.81,-646.5"/>
<text text-anchor="middle" x="1362.5" y="-689.31" font-family="Noto Sans Thai,Tahoma,Arial" font-size="8.00">ประวัติใบอนุญาต</text>
<text text-anchor="middle" x="1362.5" y="-680.31" font-family="Noto Sans Thai,Tahoma,Arial" font-size="8.00">สมาชิก</text>
</g>
<!-- PAO_WI023 -->
<g id="node28" class="node">
<title>PAO_WI023</title>
<path fill="#2e7d32" stroke="black" d="M1225,-749.71C1225,-749.71 1041,-749.71 1041,-749.71 1035,-749.71 1029,-743.71 1029,-737.71 1029,-737.71 1029,-725.71 1029,-725.71 1029,-719.71 1035,-713.71 1041,-713.71 1041,-713.71 1225,-713.71 1225,-713.71 1231,-713.71 1237,-719.71 1237,-725.71 1237,-725.71 1237,-737.71 1237,-737.71 1237,-743.71 1231,-749.71 1225,-749.71"/>
<text text-anchor="middle" x="1133" y="-734.71" font-family="Noto Sans Thai,Tahoma,Arial" font-size="10.00" fill="white">WI&#45;023</text>
<text text-anchor="middle" x="1133" y="-723.71" font-family="Noto Sans Thai,Tahoma,Arial" font-size="10.00" fill="white">หนังสือตักเตือน</text>
</g>
<!-- PAO_WI023&#45;&gt;PAO_WI012 -->
<g id="edge61" class="edge">
<title>PAO_WI023&#45;&gt;PAO_WI012</title>
<path fill="none" stroke="#2e7d32" d="M1128.38,-713.66C1126.33,-702.01 1126.1,-687.03 1135,-677.71 1156.23,-655.46 1332.5,-647.33 1448.38,-644.37"/>
<polygon fill="#2e7d32" stroke="#2e7d32" points="1448.79,-647.86 1458.71,-644.12 1448.62,-640.86 1448.79,-647.86"/>
<text text-anchor="middle" x="1208.5" y="-689.31" font-family="Noto Sans Thai,Tahoma,Arial" font-size="8.00">หนังสือตักเตือน</text>
<text text-anchor="middle" x="1208.5" y="-680.31" font-family="Noto Sans Thai,Tahoma,Arial" font-size="8.00">→ บันทึกประวัติ</text>
</g>
<!-- PAO_WI032 -->
<g id="node29" class="node">
<title>PAO_WI032</title>
<path fill="#2e7d32" stroke="black" d="M998.5,-749.71C998.5,-749.71 789.5,-749.71 789.5,-749.71 783.5,-749.71 777.5,-743.71 777.5,-737.71 777.5,-737.71 777.5,-725.71 777.5,-725.71 777.5,-719.71 783.5,-713.71 789.5,-713.71 789.5,-713.71 998.5,-713.71 998.5,-713.71 1004.5,-713.71 1010.5,-719.71 1010.5,-725.71 1010.5,-725.71 1010.5,-737.71 1010.5,-737.71 1010.5,-743.71 1004.5,-749.71 998.5,-749.71"/>
<text text-anchor="middle" x="894" y="-734.71" font-family="Noto Sans Thai,Tahoma,Arial" font-size="10.00" fill="white">WI&#45;032</text>
<text text-anchor="middle" x="894" y="-723.71" font-family="Noto Sans Thai,Tahoma,Arial" font-size="10.00" fill="white">แบบประเมินผลรายปี</text>
</g>
<!-- PAO_WI032&#45;&gt;PAO_WI012 -->
<g id="edge25" class="edge">
<title>PAO_WI032&#45;&gt;PAO_WI012</title>
<path fill="none" stroke="#2e7d32" d="M908.93,-713.52C920.84,-701.14 938.67,-685.32 958,-677.71 1002.29,-660.25 1291.55,-649.75 1448.72,-645.26"/>
<polygon fill="#2e7d32" stroke="#2e7d32" points="1448.98,-648.76 1458.88,-644.98 1448.78,-641.76 1448.98,-648.76"/>
<text text-anchor="middle" x="1041" y="-689.31" font-family="Noto Sans Thai,Tahoma,Arial" font-size="8.00">แบบประเมินผลรายปี</text>
<text text-anchor="middle" x="1041" y="-680.31" font-family="Noto Sans Thai,Tahoma,Arial" font-size="8.00">(360 องศา)</text>
</g>
<!-- PAO_SD001&#45;&gt;PAO_WI011 -->
<g id="edge8" class="edge">
<title>PAO_SD001&#45;&gt;PAO_WI011</title>
<path fill="none" stroke="#e65100" d="M1427.45,-803.66C1468.99,-792.37 1525.54,-777.84 1576,-767.71 1597.24,-763.44 1640.63,-756.78 1684.4,-750.41"/>
<polygon fill="#e65100" stroke="#e65100" points="1684.93,-753.87 1694.33,-748.97 1683.93,-746.94 1684.93,-753.87"/>
<text text-anchor="middle" x="1644.5" y="-779.31" font-family="Noto Sans Thai,Tahoma,Arial" font-size="8.00">ผู้สมัครยืนยัน</text>
<text text-anchor="middle" x="1644.5" y="-770.31" font-family="Noto Sans Thai,Tahoma,Arial" font-size="8.00">เริ่มงาน</text>
</g>
<!-- PAO_FM001 -->
<g id="node31" class="node">
<title>PAO_FM001</title>
<path fill="#6a1b9a" stroke="black" d="M1892,-1206.13C1892,-1206.13 1810,-1206.13 1810,-1206.13 1804,-1206.13 1798,-1200.13 1798,-1194.13 1798,-1194.13 1798,-1182.13 1798,-1182.13 1798,-1176.13 1804,-1170.13 1810,-1170.13 1810,-1170.13 1892,-1170.13 1892,-1170.13 1898,-1170.13 1904,-1176.13 1904,-1182.13 1904,-1182.13 1904,-1194.13 1904,-1194.13 1904,-1200.13 1898,-1206.13 1892,-1206.13"/>
<text text-anchor="middle" x="1851" y="-1191.13" font-family="Noto Sans Thai,Tahoma,Arial" font-size="10.00" fill="white">FM&#45;001</text>
<text text-anchor="middle" x="1851" y="-1180.13" font-family="Noto Sans Thai,Tahoma,Arial" font-size="10.00" fill="white">ใบลาออก</text>
</g>
<!-- PAO_FM001&#45;&gt;PAO_WI020 -->
<g id="edge51" class="edge">
<title>PAO_FM001&#45;&gt;PAO_WI020</title>
<path fill="none" stroke="#6a1b9a" d="M1844.28,-1169.75C1839.41,-1157.13 1832.73,-1139.84 1827.2,-1125.52"/>
<polygon fill="#6a1b9a" stroke="#6a1b9a" points="1830.46,-1124.25 1823.59,-1116.18 1823.93,-1126.77 1830.46,-1124.25"/>
<text text-anchor="middle" x="1896" y="-1145.73" font-family="Noto Sans Thai,Tahoma,Arial" font-size="8.00">ใบลาออก</text>
<text text-anchor="middle" x="1896" y="-1136.73" font-family="Noto Sans Thai,Tahoma,Arial" font-size="8.00">→ ยกเลิกสิทธิ</text>
</g>
<!-- WCD_WI002 -->
<g id="node51" class="node">
<title>WCD_WI002</title>
<path fill="#c62828" stroke="black" d="M3841,-148.43C3841,-148.43 3683,-148.43 3683,-148.43 3677,-148.43 3671,-142.43 3671,-136.43 3671,-136.43 3671,-124.43 3671,-124.43 3671,-118.43 3677,-112.43 3683,-112.43 3683,-112.43 3841,-112.43 3841,-112.43 3847,-112.43 3853,-118.43 3853,-124.43 3853,-124.43 3853,-136.43 3853,-136.43 3853,-142.43 3847,-148.43 3841,-148.43"/>
<text text-anchor="middle" x="3762" y="-133.43" font-family="Noto Sans Thai,Tahoma,Arial" font-size="10.00" fill="white">WI&#45;002</text>
<text text-anchor="middle" x="3762" y="-122.43" font-family="Noto Sans Thai,Tahoma,Arial" font-size="10.00" fill="white">เงินสมทบลาออก</text>
</g>
<!-- PAO_FM001&#45;&gt;WCD_WI002 -->
<g id="edge50" class="edge">
<title>PAO_FM001&#45;&gt;WCD_WI002</title>
<path fill="none" stroke="#6a1b9a" d="M1904.18,-1186.73C2269.79,-1183.77 4397,-1163.82 4397,-1099.13 4397,-1099.13 4397,-1099.13 4397,-225.85 4397,-198.14 4393.2,-184.81 4370,-169.64 4346.37,-154.18 3890.05,-154.95 3862,-151.64 3858.06,-151.17 3854.04,-150.64 3849.98,-150.04"/>
<polygon fill="#6a1b9a" stroke="#6a1b9a" points="3850.29,-146.54 3839.87,-148.45 3849.2,-153.46 3850.29,-146.54"/>
<text text-anchor="middle" x="4471" y="-689.31" font-family="Noto Sans Thai,Tahoma,Arial" font-size="8.00">ใบลาออก</text>
<text text-anchor="middle" x="4471" y="-680.31" font-family="Noto Sans Thai,Tahoma,Arial" font-size="8.00">→ คำนวณเงินสมทบ</text>
</g>
<!-- PAO_FM002 -->
<g id="node32" class="node">
<title>PAO_FM002</title>
<path fill="#6a1b9a" stroke="black" d="M1125,-1206.13C1125,-1206.13 967,-1206.13 967,-1206.13 961,-1206.13 955,-1200.13 955,-1194.13 955,-1194.13 955,-1182.13 955,-1182.13 955,-1176.13 961,-1170.13 967,-1170.13 967,-1170.13 1125,-1170.13 1125,-1170.13 1131,-1170.13 1137,-1176.13 1137,-1182.13 1137,-1182.13 1137,-1194.13 1137,-1194.13 1137,-1200.13 1131,-1206.13 1125,-1206.13"/>
<text text-anchor="middle" x="1046" y="-1191.13" font-family="Noto Sans Thai,Tahoma,Arial" font-size="10.00" fill="white">FM&#45;002</text>
<text text-anchor="middle" x="1046" y="-1180.13" font-family="Noto Sans Thai,Tahoma,Arial" font-size="10.00" fill="white">ทะเบียนเอกสาร</text>
</g>
<!-- PAO_FM003 -->
<g id="node33" class="node">
<title>PAO_FM003</title>
<path fill="#6a1b9a" stroke="black" d="M924.5,-1206.13C924.5,-1206.13 789.5,-1206.13 789.5,-1206.13 783.5,-1206.13 777.5,-1200.13 777.5,-1194.13 777.5,-1194.13 777.5,-1182.13 777.5,-1182.13 777.5,-1176.13 783.5,-1170.13 789.5,-1170.13 789.5,-1170.13 924.5,-1170.13 924.5,-1170.13 930.5,-1170.13 936.5,-1176.13 936.5,-1182.13 936.5,-1182.13 936.5,-1194.13 936.5,-1194.13 936.5,-1200.13 930.5,-1206.13 924.5,-1206.13"/>
<text text-anchor="middle" x="857" y="-1191.13" font-family="Noto Sans Thai,Tahoma,Arial" font-size="10.00" fill="white">FM&#45;003</text>
<text text-anchor="middle" x="857" y="-1180.13" font-family="Noto Sans Thai,Tahoma,Arial" font-size="10.00" fill="white">แบบสอบถาม ISMS</text>
</g>
<!-- PAD_PM002 -->
<g id="node35" class="node">
<title>PAD_PM002</title>
<path fill="#1565c0" stroke="black" d="M2851,-548.71C2851,-548.71 2667,-548.71 2667,-548.71 2661,-548.71 2655,-542.71 2655,-536.71 2655,-536.71 2655,-524.71 2655,-524.71 2655,-518.71 2661,-512.71 2667,-512.71 2667,-512.71 2851,-512.71 2851,-512.71 2857,-512.71 2863,-518.71 2863,-524.71 2863,-524.71 2863,-536.71 2863,-536.71 2863,-542.71 2857,-548.71 2851,-548.71"/>
<text text-anchor="middle" x="2759" y="-533.71" font-family="Noto Sans Thai,Tahoma,Arial" font-size="10.00" fill="white">PM&#45;002</text>
<text text-anchor="middle" x="2759" y="-522.71" font-family="Noto Sans Thai,Tahoma,Arial" font-size="10.00" fill="white">ศูนย์พัฒนาฝีมือ</text>
</g>
<!-- PAD_WI002 -->
<g id="node39" class="node">
<title>PAD_WI002</title>
<path fill="#2e7d32" stroke="black" d="M2176,-455.49C2176,-455.49 2146,-455.49 2146,-455.49 2140,-455.49 2134,-449.49 2134,-443.49 2134,-443.49 2134,-431.49 2134,-431.49 2134,-425.49 2140,-419.49 2146,-419.49 2146,-419.49 2176,-419.49 2176,-419.49 2182,-419.49 2188,-425.49 2188,-431.49 2188,-431.49 2188,-443.49 2188,-443.49 2188,-449.49 2182,-455.49 2176,-455.49"/>
<text text-anchor="middle" x="2161" y="-440.49" font-family="Noto Sans Thai,Tahoma,Arial" font-size="10.00" fill="white">WI&#45;002</text>
<text text-anchor="middle" x="2161" y="-429.49" font-family="Noto Sans Thai,Tahoma,Arial" font-size="10.00" fill="white">Training</text>
</g>
<!-- PAD_PM004&#45;&gt;PAD_WI002 -->
<g id="edge26" class="edge">
<title>PAD_PM004&#45;&gt;PAD_WI002</title>
<path fill="none" stroke="#1565c0" d="M2043.27,-512.55C2066.46,-497.96 2099.93,-476.91 2125.26,-460.98"/>
<polygon fill="#1565c0" stroke="#1565c0" points="2127.25,-463.86 2133.85,-455.57 2123.52,-457.93 2127.25,-463.86"/>
<text text-anchor="middle" x="2170.5" y="-488.31" font-family="Noto Sans Thai,Tahoma,Arial" font-size="8.00">หลักสูตรฝึกอบรม</text>
<text text-anchor="middle" x="2170.5" y="-479.31" font-family="Noto Sans Thai,Tahoma,Arial" font-size="8.00">จากแผน 3 ผ่าน</text>
</g>
<!-- PAD_WI003 -->
<g id="node40" class="node">
<title>PAD_WI003</title>
<path fill="#2e7d32" stroke="black" d="M2650,-359.07C2650,-359.07 2428,-359.07 2428,-359.07 2422,-359.07 2416,-353.07 2416,-347.07 2416,-347.07 2416,-335.07 2416,-335.07 2416,-329.07 2422,-323.07 2428,-323.07 2428,-323.07 2650,-323.07 2650,-323.07 2656,-323.07 2662,-329.07 2662,-335.07 2662,-335.07 2662,-347.07 2662,-347.07 2662,-353.07 2656,-359.07 2650,-359.07"/>
<text text-anchor="middle" x="2539" y="-344.07" font-family="Noto Sans Thai,Tahoma,Arial" font-size="10.00" fill="white">WI&#45;003</text>
<text text-anchor="middle" x="2539" y="-333.07" font-family="Noto Sans Thai,Tahoma,Arial" font-size="10.00" fill="white">กำกับพัฒนาบุคลากร</text>
</g>
<!-- PAD_PM005&#45;&gt;PAD_WI003 -->
<g id="edge27" class="edge">
<title>PAD_PM005&#45;&gt;PAD_WI003</title>
<path fill="none" stroke="#1565c0" d="M2539,-419.17C2539,-405.33 2539,-385.66 2539,-369.66"/>
<polygon fill="#1565c0" stroke="#1565c0" points="2542.5,-369.28 2539,-359.28 2535.5,-369.28 2542.5,-369.28"/>
<text text-anchor="middle" x="2607.5" y="-391.88" font-family="Noto Sans Thai,Tahoma,Arial" font-size="8.00">ผลวัดทุนองค์กร</text>
<text text-anchor="middle" x="2607.5" y="-382.88" font-family="Noto Sans Thai,Tahoma,Arial" font-size="8.00">→ พัฒนาต่อ</text>
</g>
<!-- PAD_WI001 -->
<g id="node38" class="node">
<title>PAD_WI001</title>
<path fill="#2e7d32" stroke="black" d="M2413,-455.49C2413,-455.49 2255,-455.49 2255,-455.49 2249,-455.49 2243,-449.49 2243,-443.49 2243,-443.49 2243,-431.49 2243,-431.49 2243,-425.49 2249,-419.49 2255,-419.49 2255,-419.49 2413,-419.49 2413,-419.49 2419,-419.49 2425,-425.49 2425,-431.49 2425,-431.49 2425,-443.49 2425,-443.49 2425,-449.49 2419,-455.49 2413,-455.49"/>
<text text-anchor="middle" x="2334" y="-440.49" font-family="Noto Sans Thai,Tahoma,Arial" font-size="10.00" fill="white">WI&#45;001</text>
<text text-anchor="middle" x="2334" y="-429.49" font-family="Noto Sans Thai,Tahoma,Arial" font-size="10.00" fill="white">เปิดอบรมภายใน</text>
</g>
<!-- PAD_WI001&#45;&gt;PAD_WI003 -->
<g id="edge28" class="edge">
<title>PAD_WI001&#45;&gt;PAD_WI003</title>
<path fill="none" stroke="#2e7d32" d="M2349.26,-419.41C2361.33,-406.88 2379.24,-390.35 2398,-380.28 2411.56,-373 2426.62,-367.02 2441.71,-362.14"/>
<polygon fill="#2e7d32" stroke="#2e7d32" points="2443.08,-365.38 2451.61,-359.09 2441.02,-358.69 2443.08,-365.38"/>
<text text-anchor="middle" x="2466.5" y="-387.38" font-family="Noto Sans Thai,Tahoma,Arial" font-size="8.00">ผลการอบรมภายใน</text>
</g>
<!-- PAD_WI002&#45;&gt;PAD_WI003 -->
<g id="edge29" class="edge">
<title>PAD_WI002&#45;&gt;PAD_WI003</title>
<path fill="none" stroke="#2e7d32" d="M2188.18,-422.05C2213.57,-409.17 2252.87,-390.77 2289,-380.28 2326.25,-369.46 2367.57,-361.55 2405.71,-355.84"/>
<polygon fill="#2e7d32" stroke="#2e7d32" points="2406.46,-359.27 2415.85,-354.36 2405.45,-352.34 2406.46,-359.27"/>
<text text-anchor="middle" x="2329" y="-387.38" font-family="Noto Sans Thai,Tahoma,Arial" font-size="8.00">ผลการ Training</text>
</g>
<!-- PAD_WI003&#45;&gt;PAO_WI012 -->
<g id="edge66" class="edge">
<title>PAD_WI003&#45;&gt;PAO_WI012</title>
<path fill="none" stroke="#2e7d32" stroke-dasharray="5,2" d="M2650.33,-359.08C2866.07,-392.3 3321.01,-463.69 3332,-476.71 3361.81,-512 3351.6,-548 3318,-579.71 3257.69,-636.62 1908.87,-620.56 1826,-623.71 1768.1,-625.91 1703.44,-629.81 1651.27,-633.32"/>
<polygon fill="#2e7d32" stroke="#2e7d32" points="1650.74,-629.85 1641,-634.02 1651.22,-636.83 1650.74,-629.85"/>
<text text-anchor="middle" x="3421.5" y="-488.31" font-family="Noto Sans Thai,Tahoma,Arial" font-size="8.00">ผลพัฒนาบุคลากร</text>
<text text-anchor="middle" x="3421.5" y="-479.31" font-family="Noto Sans Thai,Tahoma,Arial" font-size="8.00">→ ปรับปรุงประเมิน</text>
</g>
<!-- PAD_WI004 -->
<g id="node41" class="node">
<title>PAD_WI004</title>
<path fill="#2e7d32" stroke="black" d="M2898.5,-244.85C2898.5,-244.85 2763.5,-244.85 2763.5,-244.85 2757.5,-244.85 2751.5,-238.85 2751.5,-232.85 2751.5,-232.85 2751.5,-220.85 2751.5,-220.85 2751.5,-214.85 2757.5,-208.85 2763.5,-208.85 2763.5,-208.85 2898.5,-208.85 2898.5,-208.85 2904.5,-208.85 2910.5,-214.85 2910.5,-220.85 2910.5,-220.85 2910.5,-232.85 2910.5,-232.85 2910.5,-238.85 2904.5,-244.85 2898.5,-244.85"/>
<text text-anchor="middle" x="2831" y="-229.85" font-family="Noto Sans Thai,Tahoma,Arial" font-size="10.00" fill="white">WI&#45;004</text>
<text text-anchor="middle" x="2831" y="-218.85" font-family="Noto Sans Thai,Tahoma,Arial" font-size="10.00" fill="white">สร้าง/จ่าย MSP</text>
</g>
<!-- PAD_WI003&#45;&gt;PAD_WI004 -->
<g id="edge30" class="edge">
<title>PAD_WI003&#45;&gt;PAD_WI004</title>
<path fill="none" stroke="#2e7d32" d="M2583.35,-323.02C2635.38,-303.03 2721.61,-269.89 2777.36,-248.47"/>
<polygon fill="#2e7d32" stroke="#2e7d32" points="2778.63,-251.73 2786.71,-244.87 2776.12,-245.19 2778.63,-251.73"/>
<text text-anchor="middle" x="2758.5" y="-295.45" font-family="Noto Sans Thai,Tahoma,Arial" font-size="8.00">แผนพัฒนาบุคลากร</text>
<text text-anchor="middle" x="2758.5" y="-286.45" font-family="Noto Sans Thai,Tahoma,Arial" font-size="8.00">→ สร้าง MSP</text>
</g>
<!-- PAD_WI005 -->
<g id="node42" class="node">
<title>PAD_WI005</title>
<path fill="#2e7d32" stroke="black" d="M2865,-148.43C2865,-148.43 2797,-148.43 2797,-148.43 2791,-148.43 2785,-142.43 2785,-136.43 2785,-136.43 2785,-124.43 2785,-124.43 2785,-118.43 2791,-112.43 2797,-112.43 2797,-112.43 2865,-112.43 2865,-112.43 2871,-112.43 2877,-118.43 2877,-124.43 2877,-124.43 2877,-136.43 2877,-136.43 2877,-142.43 2871,-148.43 2865,-148.43"/>
<text text-anchor="middle" x="2831" y="-133.43" font-family="Noto Sans Thai,Tahoma,Arial" font-size="10.00" fill="white">WI&#45;005</text>
<text text-anchor="middle" x="2831" y="-122.43" font-family="Noto Sans Thai,Tahoma,Arial" font-size="10.00" fill="white">ซื้อ MSP</text>
</g>
<!-- PAD_WI004&#45;&gt;PAD_WI005 -->
<g id="edge31" class="edge">
<title>PAD_WI004&#45;&gt;PAD_WI005</title>
<path fill="none" stroke="#2e7d32" d="M2831,-208.53C2831,-194.69 2831,-175.02 2831,-159.02"/>
<polygon fill="#2e7d32" stroke="#2e7d32" points="2834.5,-158.64 2831,-148.64 2827.5,-158.64 2834.5,-158.64"/>
<text text-anchor="middle" x="2899.5" y="-181.24" font-family="Noto Sans Thai,Tahoma,Arial" font-size="8.00">MSP ที่สร้างแล้ว</text>
<text text-anchor="middle" x="2899.5" y="-172.24" font-family="Noto Sans Thai,Tahoma,Arial" font-size="8.00">→ ซื้อ</text>
</g>
<!-- PAD_WI007 -->
<g id="node44" class="node">
<title>PAD_WI007</title>
<path fill="#2e7d32" stroke="black" d="M3087.5,-148.43C3087.5,-148.43 2954.5,-148.43 2954.5,-148.43 2948.5,-148.43 2942.5,-142.43 2942.5,-136.43 2942.5,-136.43 2942.5,-124.43 2942.5,-124.43 2942.5,-118.43 2948.5,-112.43 2954.5,-112.43 2954.5,-112.43 3087.5,-112.43 3087.5,-112.43 3093.5,-112.43 3099.5,-118.43 3099.5,-124.43 3099.5,-124.43 3099.5,-136.43 3099.5,-136.43 3099.5,-142.43 3093.5,-148.43 3087.5,-148.43"/>
<text text-anchor="middle" x="3021" y="-133.43" font-family="Noto Sans Thai,Tahoma,Arial" font-size="10.00" fill="white">WI&#45;007</text>
<text text-anchor="middle" x="3021" y="-122.43" font-family="Noto Sans Thai,Tahoma,Arial" font-size="10.00" fill="white">ดึง BUPOINT กลับ</text>
</g>
<!-- PAD_WI004&#45;&gt;PAD_WI007 -->
<g id="edge33" class="edge">
<title>PAD_WI004&#45;&gt;PAD_WI007</title>
<path fill="none" stroke="#2e7d32" d="M2910.86,-212.89C2931.79,-207.23 2953.62,-199.14 2972,-187.64 2984.59,-179.76 2995.74,-167.65 3004.21,-156.68"/>
<polygon fill="#2e7d32" stroke="#2e7d32" points="3007.04,-158.74 3010.14,-148.61 3001.4,-154.6 3007.04,-158.74"/>
<text text-anchor="middle" x="3045" y="-181.24" font-family="Noto Sans Thai,Tahoma,Arial" font-size="8.00">BUPOINT ผิดพลาด</text>
<text text-anchor="middle" x="3045" y="-172.24" font-family="Noto Sans Thai,Tahoma,Arial" font-size="8.00">→ ดึงกลับ</text>
</g>
<!-- PAD_WI006 -->
<g id="node43" class="node">
<title>PAD_WI006</title>
<path fill="#2e7d32" stroke="black" d="M2948,-52C2948,-52 2714,-52 2714,-52 2708,-52 2702,-46 2702,-40 2702,-40 2702,-28 2702,-28 2702,-22 2708,-16 2714,-16 2714,-16 2948,-16 2948,-16 2954,-16 2960,-22 2960,-28 2960,-28 2960,-40 2960,-40 2960,-46 2954,-52 2948,-52"/>
<text text-anchor="middle" x="2831" y="-37" font-family="Noto Sans Thai,Tahoma,Arial" font-size="10.00" fill="white">WI&#45;006</text>
<text text-anchor="middle" x="2831" y="-26" font-family="Noto Sans Thai,Tahoma,Arial" font-size="10.00" fill="white">เก็บค่าดำเนินการ MSP</text>
</g>
<!-- PAD_WI005&#45;&gt;PAD_WI006 -->
<g id="edge32" class="edge">
<title>PAD_WI005&#45;&gt;PAD_WI006</title>
<path fill="none" stroke="#2e7d32" d="M2831,-112.11C2831,-98.26 2831,-78.6 2831,-62.59"/>
<polygon fill="#2e7d32" stroke="#2e7d32" points="2834.5,-62.21 2831,-52.21 2827.5,-62.21 2834.5,-62.21"/>
<text text-anchor="middle" x="2919.5" y="-84.81" font-family="Noto Sans Thai,Tahoma,Arial" font-size="8.00">ธุรกรรม MSP</text>
<text text-anchor="middle" x="2919.5" y="-75.81" font-family="Noto Sans Thai,Tahoma,Arial" font-size="8.00">→ เก็บค่าดำเนินการ</text>
</g>
<!-- ext_Member -->
<g id="node65" class="node">
<title>ext_Member</title>
<ellipse fill="#ffe082" stroke="black" cx="3263" cy="-34" rx="54.99" ry="18"/>
<text text-anchor="middle" x="3263" y="-31.5" font-family="Noto Sans Thai,Tahoma,Arial" font-size="10.00" fill="#000000">สมาชิก</text>
</g>
<!-- PAD_WI007&#45;&gt;ext_Member -->
<g id="edge34" class="edge">
<title>PAD_WI007&#45;&gt;ext_Member</title>
<path fill="none" stroke="#2e7d32" d="M3064.82,-112.33C3108.64,-95.23 3175.62,-69.09 3219.37,-52.02"/>
<polygon fill="#2e7d32" stroke="#2e7d32" points="3220.83,-55.21 3228.87,-48.32 3218.29,-48.69 3220.83,-55.21"/>
<text text-anchor="middle" x="3226" y="-80.31" font-family="Noto Sans Thai,Tahoma,Arial" font-size="8.00">BUPOINT คืนสมาชิก</text>
</g>
<!-- PAD_SD001 -->
<g id="node45" class="node">
<title>PAD_SD001</title>
<path fill="#e65100" stroke="black" d="M2499,-548.71C2499,-548.71 2469,-548.71 2469,-548.71 2463,-548.71 2457,-542.71 2457,-536.71 2457,-536.71 2457,-524.71 2457,-524.71 2457,-518.71 2463,-512.71 2469,-512.71 2469,-512.71 2499,-512.71 2499,-512.71 2505,-512.71 2511,-518.71 2511,-524.71 2511,-524.71 2511,-536.71 2511,-536.71 2511,-542.71 2505,-548.71 2499,-548.71"/>
<text text-anchor="middle" x="2484" y="-533.71" font-family="Noto Sans Thai,Tahoma,Arial" font-size="10.00" fill="white">SD&#45;001</text>
<text text-anchor="middle" x="2484" y="-522.71" font-family="Noto Sans Thai,Tahoma,Arial" font-size="10.00" fill="white">BCM</text>
</g>
<!-- ext_BMC -->
<g id="node64" class="node">
<title>ext_BMC</title>
<ellipse fill="#ffe082" stroke="black" cx="3384" cy="-437.49" rx="106.13" ry="21.43"/>
<text text-anchor="middle" x="3384" y="-440.49" font-family="Noto Sans Thai,Tahoma,Arial" font-size="10.00" fill="#000000">BMC</text>
<text text-anchor="middle" x="3384" y="-429.49" font-family="Noto Sans Thai,Tahoma,Arial" font-size="10.00" fill="#000000">(ดูแลสมาชิก)</text>
</g>
<!-- PAD_SD001&#45;&gt;ext_BMC -->
<g id="edge64" class="edge">
<title>PAD_SD001&#45;&gt;ext_BMC</title>
<path fill="none" stroke="#e65100" d="M2511.04,-515.8C2514.33,-514.55 2517.7,-513.47 2521,-512.71 2594.51,-495.6 3128.98,-520.25 3200,-494.71 3212.21,-490.31 3211.3,-482.33 3223,-476.71 3244.29,-466.46 3268.52,-458.85 3291.6,-453.25"/>
<polygon fill="#e65100" stroke="#e65100" points="3292.47,-456.64 3301.41,-450.96 3290.88,-449.82 3292.47,-456.64"/>
<text text-anchor="middle" x="3277.5" y="-488.31" font-family="Noto Sans Thai,Tahoma,Arial" font-size="8.00">BCM</text>
<text text-anchor="middle" x="3277.5" y="-479.31" font-family="Noto Sans Thai,Tahoma,Arial" font-size="8.00">แจ้งเตือน BMC</text>
</g>
<!-- PAD_SD002 -->
<g id="node46" class="node">
<title>PAD_SD002</title>
<path fill="#e65100" stroke="black" d="M2427,-548.71C2427,-548.71 2397,-548.71 2397,-548.71 2391,-548.71 2385,-542.71 2385,-536.71 2385,-536.71 2385,-524.71 2385,-524.71 2385,-518.71 2391,-512.71 2397,-512.71 2397,-512.71 2427,-512.71 2427,-512.71 2433,-512.71 2439,-518.71 2439,-524.71 2439,-524.71 2439,-536.71 2439,-536.71 2439,-542.71 2433,-548.71 2427,-548.71"/>
<text text-anchor="middle" x="2412" y="-533.71" font-family="Noto Sans Thai,Tahoma,Arial" font-size="10.00" fill="white">SD&#45;002</text>
<text text-anchor="middle" x="2412" y="-522.71" font-family="Noto Sans Thai,Tahoma,Arial" font-size="10.00" fill="white">BCP</text>
</g>
<!-- PAD_SD002&#45;&gt;ext_BMC -->
<g id="edge65" class="edge">
<title>PAD_SD002&#45;&gt;ext_BMC</title>
<path fill="none" stroke="#e65100" d="M2439.13,-515.64C2442.07,-514.5 2445.06,-513.48 2448,-512.71 2751.78,-432.28 2839.8,-484.4 3153,-458.71 3194.15,-455.33 3239.41,-451.41 3278.88,-447.93"/>
<polygon fill="#e65100" stroke="#e65100" points="3279.4,-451.4 3289.05,-447.03 3278.78,-444.43 3279.4,-451.4"/>
<text text-anchor="middle" x="2695" y="-488.31" font-family="Noto Sans Thai,Tahoma,Arial" font-size="8.00">BCP</text>
<text text-anchor="middle" x="2695" y="-479.31" font-family="Noto Sans Thai,Tahoma,Arial" font-size="8.00">แผนต่อเนื่องธุรกิจ</text>
</g>
<!-- PAD_SD003 -->
<g id="node47" class="node">
<title>PAD_SD003</title>
<path fill="#e65100" stroke="black" d="M2354.5,-548.71C2354.5,-548.71 2183.5,-548.71 2183.5,-548.71 2177.5,-548.71 2171.5,-542.71 2171.5,-536.71 2171.5,-536.71 2171.5,-524.71 2171.5,-524.71 2171.5,-518.71 2177.5,-512.71 2183.5,-512.71 2183.5,-512.71 2354.5,-512.71 2354.5,-512.71 2360.5,-512.71 2366.5,-518.71 2366.5,-524.71 2366.5,-524.71 2366.5,-536.71 2366.5,-536.71 2366.5,-542.71 2360.5,-548.71 2354.5,-548.71"/>
<text text-anchor="middle" x="2269" y="-533.71" font-family="Noto Sans Thai,Tahoma,Arial" font-size="10.00" fill="white">SD&#45;003</text>
<text text-anchor="middle" x="2269" y="-522.71" font-family="Noto Sans Thai,Tahoma,Arial" font-size="10.00" fill="white">มาตรฐานฝึกอบรม</text>
</g>
<!-- PAD_SD003&#45;&gt;PAD_WI001 -->
<g id="edge63" class="edge">
<title>PAD_SD003&#45;&gt;PAD_WI001</title>
<path fill="none" stroke="#e65100" d="M2281.23,-512.55C2291.03,-498.79 2304.94,-479.28 2316.01,-463.74"/>
<polygon fill="#e65100" stroke="#e65100" points="2318.88,-465.75 2321.83,-455.57 2313.18,-461.68 2318.88,-465.75"/>
<text text-anchor="middle" x="2373.5" y="-488.31" font-family="Noto Sans Thai,Tahoma,Arial" font-size="8.00">มาตรฐานฝึกอบรม</text>
<text text-anchor="middle" x="2373.5" y="-479.31" font-family="Noto Sans Thai,Tahoma,Arial" font-size="8.00">→ เปิดอบรม</text>
</g>
<!-- PAD_SD004 -->
<g id="node48" class="node">
<title>PAD_SD004</title>
<path fill="#e65100" stroke="black" d="M2141,-548.71C2141,-548.71 2111,-548.71 2111,-548.71 2105,-548.71 2099,-542.71 2099,-536.71 2099,-536.71 2099,-524.71 2099,-524.71 2099,-518.71 2105,-512.71 2111,-512.71 2111,-512.71 2141,-512.71 2141,-512.71 2147,-512.71 2153,-518.71 2153,-524.71 2153,-524.71 2153,-536.71 2153,-536.71 2153,-542.71 2147,-548.71 2141,-548.71"/>
<text text-anchor="middle" x="2126" y="-533.71" font-family="Noto Sans Thai,Tahoma,Arial" font-size="10.00" fill="white">SD&#45;004</text>
<text text-anchor="middle" x="2126" y="-522.71" font-family="Noto Sans Thai,Tahoma,Arial" font-size="10.00" fill="white">ISMS</text>
</g>
<!-- ext_Money -->
<g id="node62" class="node">
<title>ext_Money</title>
<ellipse fill="#ffe082" stroke="black" cx="4150" cy="-34" rx="108.81" ry="18"/>
<text text-anchor="middle" x="4150" y="-31.5" font-family="Noto Sans Thai,Tahoma,Arial" font-size="10.00" fill="#000000">การเงิน/ธนาคาร</text>
</g>
<!-- WCD_WI001&#45;&gt;ext_Money -->
<g id="edge43" class="edge">
<title>WCD_WI001&#45;&gt;ext_Money</title>
<path fill="none" stroke="#c62828" d="M4240.55,-208.81C4249.82,-207.61 4259.07,-206.52 4268,-205.64 4448.63,-187.77 4497.47,-220.41 4676,-187.64 4726.18,-178.43 4755.11,-192.99 4785,-151.64 4797.29,-134.63 4799.01,-120.05 4785,-104.43 4751,-66.5 4438.77,-47.26 4265.16,-39.41"/>
<polygon fill="#c62828" stroke="#c62828" points="4265.1,-35.9 4254.95,-38.95 4264.79,-42.9 4265.1,-35.9"/>
<text text-anchor="middle" x="4848" y="-133.03" font-family="Noto Sans Thai,Tahoma,Arial" font-size="8.00">เบี้ยเลี้ยง</text>
<text text-anchor="middle" x="4848" y="-124.03" font-family="Noto Sans Thai,Tahoma,Arial" font-size="8.00">สิ้นเดือน</text>
</g>
<!-- WCD_WI002&#45;&gt;ext_Money -->
<g id="edge52" class="edge">
<title>WCD_WI002&#45;&gt;ext_Money</title>
<path fill="none" stroke="#c62828" d="M3775.3,-112.34C3786.5,-99.27 3803.76,-82.05 3823,-73.21 3860.23,-56.12 3958.32,-46.18 4037.43,-40.75"/>
<polygon fill="#c62828" stroke="#c62828" points="4037.72,-44.24 4047.47,-40.08 4037.25,-37.26 4037.72,-44.24"/>
<text text-anchor="middle" x="3896.5" y="-84.81" font-family="Noto Sans Thai,Tahoma,Arial" font-size="8.00">เงินสมทบอายุงาน</text>
<text text-anchor="middle" x="3896.5" y="-75.81" font-family="Noto Sans Thai,Tahoma,Arial" font-size="8.00">เข้าบัญชีสมาชิก</text>
</g>
<!-- ext_BCT -->
<g id="node58" class="node">
<title>ext_BCT</title>
<ellipse fill="#ffe082" stroke="black" cx="4502" cy="-130.43" rx="124.4" ry="21.43"/>
<text text-anchor="middle" x="4502" y="-133.43" font-family="Noto Sans Thai,Tahoma,Arial" font-size="10.00" fill="#000000">BCT</text>
<text text-anchor="middle" x="4502" y="-122.43" font-family="Noto Sans Thai,Tahoma,Arial" font-size="10.00" fill="#000000">(ระบบจ่ายเงิน)</text>
</g>
<!-- WCD_WI003&#45;&gt;ext_BCT -->
<g id="edge70" class="edge">
<title>WCD_WI003&#45;&gt;ext_BCT</title>
<path fill="none" stroke="#c62828" d="M3993.31,-208.83C3999.62,-207.69 4005.91,-206.61 4012,-205.64 4078.3,-195.04 4095.53,-197.12 4162,-187.64 4245.69,-175.71 4340.58,-159.82 4408.8,-147.98"/>
<polygon fill="#c62828" stroke="#c62828" points="4409.42,-151.43 4418.67,-146.26 4408.22,-144.53 4409.42,-151.43"/>
<text text-anchor="middle" x="4320" y="-181.24" font-family="Noto Sans Thai,Tahoma,Arial" font-size="8.00">VC ตั้งเบิก</text>
<text text-anchor="middle" x="4320" y="-172.24" font-family="Noto Sans Thai,Tahoma,Arial" font-size="8.00">→ เบิกเงิน</text>
</g>
<!-- WCD_WI003&#45;&gt;ext_Member -->
<g id="edge71" class="edge">
<title>WCD_WI003&#45;&gt;ext_Member</title>
<path fill="none" stroke="#c62828" d="M3989.65,-208.83C3997.18,-207.59 4004.72,-206.49 4012,-205.64 4238.6,-179.17 4300.37,-227.51 4525,-187.64 4575.65,-178.65 4604.81,-193.29 4635,-151.64 4647.32,-134.65 4649.39,-119.7 4635,-104.43 4555.01,-19.52 4227.55,-78.11 4111,-73.21 3784.97,-59.51 3701.69,-87.79 3377,-55.21 3357.5,-53.26 3336.33,-49.86 3317.57,-46.4"/>
<polygon fill="#c62828" stroke="#c62828" points="3318.2,-42.96 3307.72,-44.54 3316.9,-49.84 3318.2,-42.96"/>
<text text-anchor="middle" x="4704.5" y="-133.03" font-family="Noto Sans Thai,Tahoma,Arial" font-size="8.00">แจ้งเตือน Line/TG</text>
<text text-anchor="middle" x="4704.5" y="-124.03" font-family="Noto Sans Thai,Tahoma,Arial" font-size="8.00">+ MSP/Cashout</text>
</g>
<!-- WCD_WI004&#45;&gt;PAO_WI017 -->
<g id="edge67" class="edge">
<title>WCD_WI004&#45;&gt;PAO_WI017</title>
<path fill="none" stroke="#c62828" stroke-dasharray="5,2" d="M3457.95,-211.94C3426.78,-205.97 3391.97,-197.95 3361,-187.64 3343.27,-181.74 3341.21,-173.86 3323,-169.64 3173.18,-134.92 2091.97,-167.51 1939,-151.64 1934.49,-151.17 1929.89,-150.6 1925.25,-149.96"/>
<polygon fill="#c62828" stroke="#c62828" points="1925.48,-146.46 1915.07,-148.44 1924.44,-153.38 1925.48,-146.46"/>
<text text-anchor="middle" x="3454" y="-181.24" font-family="Noto Sans Thai,Tahoma,Arial" font-size="8.00">ข้อมูลเงินเดือนจริง</text>
<text text-anchor="middle" x="3454" y="-172.24" font-family="Noto Sans Thai,Tahoma,Arial" font-size="8.00">→ ปรับฐาน</text>
</g>
<!-- WCD_WI005 -->
<g id="node54" class="node">
<title>WCD_WI005</title>
<path fill="#c62828" stroke="black" d="M4041,-148.43C4041,-148.43 3883,-148.43 3883,-148.43 3877,-148.43 3871,-142.43 3871,-136.43 3871,-136.43 3871,-124.43 3871,-124.43 3871,-118.43 3877,-112.43 3883,-112.43 3883,-112.43 4041,-112.43 4041,-112.43 4047,-112.43 4053,-118.43 4053,-124.43 4053,-124.43 4053,-136.43 4053,-136.43 4053,-142.43 4047,-148.43 4041,-148.43"/>
<text text-anchor="middle" x="3962" y="-133.43" font-family="Noto Sans Thai,Tahoma,Arial" font-size="10.00" fill="white">WI&#45;005</text>
<text text-anchor="middle" x="3962" y="-122.43" font-family="Noto Sans Thai,Tahoma,Arial" font-size="10.00" fill="white">โบนัสประจำปี</text>
</g>
<!-- WCD_WI004&#45;&gt;WCD_WI005 -->
<g id="edge40" class="edge">
<title>WCD_WI004&#45;&gt;WCD_WI005</title>
<path fill="none" stroke="#c62828" d="M3633.7,-208.8C3662.4,-202.19 3690.37,-194.55 3703,-187.64 3713.2,-182.05 3711.49,-174.63 3722,-169.64 3778.68,-142.74 3800.1,-161.86 3862,-151.64 3864.69,-151.2 3867.42,-150.73 3870.18,-150.25"/>
<polygon fill="#c62828" stroke="#c62828" points="3871,-153.66 3880.23,-148.45 3869.77,-146.77 3871,-153.66"/>
<text text-anchor="middle" x="3834.5" y="-181.24" font-family="Noto Sans Thai,Tahoma,Arial" font-size="8.00">ข้อมูลเงินเดือนประจำปี</text>
<text text-anchor="middle" x="3834.5" y="-172.24" font-family="Noto Sans Thai,Tahoma,Arial" font-size="8.00">→ คำนวณโบนัส</text>
</g>
<!-- WCD_WI010 -->
<g id="node56" class="node">
<title>WCD_WI010</title>
<path fill="#c62828" stroke="black" d="M3640.5,-148.43C3640.5,-148.43 3469.5,-148.43 3469.5,-148.43 3463.5,-148.43 3457.5,-142.43 3457.5,-136.43 3457.5,-136.43 3457.5,-124.43 3457.5,-124.43 3457.5,-118.43 3463.5,-112.43 3469.5,-112.43 3469.5,-112.43 3640.5,-112.43 3640.5,-112.43 3646.5,-112.43 3652.5,-118.43 3652.5,-124.43 3652.5,-124.43 3652.5,-136.43 3652.5,-136.43 3652.5,-142.43 3646.5,-148.43 3640.5,-148.43"/>
<text text-anchor="middle" x="3555" y="-133.43" font-family="Noto Sans Thai,Tahoma,Arial" font-size="10.00" fill="white">WI&#45;010</text>
<text text-anchor="middle" x="3555" y="-122.43" font-family="Noto Sans Thai,Tahoma,Arial" font-size="10.00" fill="white">นำส่งเงินสมทบ</text>
</g>
<!-- WCD_WI004&#45;&gt;WCD_WI010 -->
<g id="edge39" class="edge">
<title>WCD_WI004&#45;&gt;WCD_WI010</title>
<path fill="none" stroke="#c62828" d="M3550.1,-208.53C3550.98,-194.69 3552.23,-175.02 3553.25,-159.02"/>
<polygon fill="#c62828" stroke="#c62828" points="3556.77,-158.84 3553.91,-148.64 3549.78,-158.39 3556.77,-158.84"/>
<text text-anchor="middle" x="3626" y="-181.24" font-family="Noto Sans Thai,Tahoma,Arial" font-size="8.00">ข้อมูลเงินเดือน</text>
<text text-anchor="middle" x="3626" y="-172.24" font-family="Noto Sans Thai,Tahoma,Arial" font-size="8.00">→ นำส่งเงินสมทบ</text>
</g>
<!-- WCD_WI004&#45;&gt;ext_Money -->
<g id="edge42" class="edge">
<title>WCD_WI004&#45;&gt;ext_Money</title>
<path fill="none" stroke="#c62828" d="M3627.14,-208.82C3634.51,-207.59 3641.88,-206.5 3649,-205.64 3673.68,-202.67 4078.78,-205.56 4096,-187.64 4101.54,-181.87 4097.48,-177.5 4096,-169.64 4094.42,-161.2 4090.58,-160.08 4089,-151.64 4085.13,-131.02 4076.33,-121.15 4089,-104.43 4102.1,-87.13 4120.89,-106.78 4136,-91.21 4143.43,-83.55 4147.11,-72.58 4148.87,-62.36"/>
<polygon fill="#c62828" stroke="#c62828" points="4152.38,-62.5 4150.08,-52.16 4145.42,-61.67 4152.38,-62.5"/>
<text text-anchor="middle" x="4133" y="-133.03" font-family="Noto Sans Thai,Tahoma,Arial" font-size="8.00">เงินเดือน</text>
<text text-anchor="middle" x="4133" y="-124.03" font-family="Noto Sans Thai,Tahoma,Arial" font-size="8.00">(H2H Kbank)</text>
</g>
<!-- WCD_WI005&#45;&gt;ext_Money -->
<g id="edge41" class="edge">
<title>WCD_WI005&#45;&gt;ext_Money</title>
<path fill="none" stroke="#c62828" d="M3965.69,-112.18C3969.28,-99.57 3976.01,-83 3988,-73.21 4004.23,-59.96 4024.27,-51.15 4044.65,-45.33"/>
<polygon fill="#c62828" stroke="#c62828" points="4045.56,-48.71 4054.34,-42.78 4043.78,-41.94 4045.56,-48.71"/>
<text text-anchor="middle" x="4062" y="-84.81" font-family="Noto Sans Thai,Tahoma,Arial" font-size="8.00">BV + VC</text>
<text text-anchor="middle" x="4062" y="-75.81" font-family="Noto Sans Thai,Tahoma,Arial" font-size="8.00">→ โบนัสเข้าบัญชี</text>
</g>
<!-- WCD_WI006 -->
<g id="node55" class="node">
<title>WCD_WI006</title>
<path fill="#c62828" stroke="black" d="M3790,-244.85C3790,-244.85 3670,-244.85 3670,-244.85 3664,-244.85 3658,-238.85 3658,-232.85 3658,-232.85 3658,-220.85 3658,-220.85 3658,-214.85 3664,-208.85 3670,-208.85 3670,-208.85 3790,-208.85 3790,-208.85 3796,-208.85 3802,-214.85 3802,-220.85 3802,-220.85 3802,-232.85 3802,-232.85 3802,-238.85 3796,-244.85 3790,-244.85"/>
<text text-anchor="middle" x="3730" y="-229.85" font-family="Noto Sans Thai,Tahoma,Arial" font-size="10.00" fill="white">WI&#45;006</text>
<text text-anchor="middle" x="3730" y="-218.85" font-family="Noto Sans Thai,Tahoma,Arial" font-size="10.00" fill="white">ระบบเกษียณ</text>
</g>
<!-- WCD_WI006&#45;&gt;WCD_WI002 -->
<g id="edge49" class="edge">
<title>WCD_WI006&#45;&gt;WCD_WI002</title>
<path fill="none" stroke="#c62828" d="M3795.73,-208.77C3800.88,-207.64 3806.01,-206.58 3811,-205.64 3841.82,-199.83 3930.28,-211.19 3951,-187.64 3956.28,-181.63 3956.07,-175.83 3951,-169.64 3951,-169.64 3903.65,-160.07 3856.35,-150.5"/>
<polygon fill="#c62828" stroke="#c62828" points="3856.77,-147.02 3846.27,-148.47 3855.38,-153.88 3856.77,-147.02"/>
<text text-anchor="middle" x="4023" y="-181.24" font-family="Noto Sans Thai,Tahoma,Arial" font-size="8.00">สมาชิกเกษียณ</text>
<text text-anchor="middle" x="4023" y="-172.24" font-family="Noto Sans Thai,Tahoma,Arial" font-size="8.00">→ เงินสมทบลาออก</text>
</g>
<!-- WCD_WI006&#45;&gt;ext_Money -->
<g id="edge53" class="edge">
<title>WCD_WI006&#45;&gt;ext_Money</title>
<path fill="none" stroke="#c62828" d="M3793.44,-208.81C3799.35,-207.59 3805.27,-206.51 3811,-205.64 3882.74,-194.81 4069.37,-213.91 4137,-187.64 4148.78,-183.07 4175.59,-163.06 4181,-151.64 4195,-122.09 4180.41,-85.22 4166.89,-60.94"/>
<polygon fill="#c62828" stroke="#c62828" points="4169.89,-59.15 4161.82,-52.29 4163.85,-62.69 4169.89,-59.15"/>
<text text-anchor="middle" x="4259.5" y="-133.03" font-family="Noto Sans Thai,Tahoma,Arial" font-size="8.00">เงินชดเชยเกษียณ</text>
<text text-anchor="middle" x="4259.5" y="-124.03" font-family="Noto Sans Thai,Tahoma,Arial" font-size="8.00">+ หุ้น CU GTC</text>
</g>
<!-- ext_Gov -->
<g id="node63" class="node">
<title>ext_Gov</title>
<ellipse fill="#ffe082" stroke="black" cx="3555" cy="-34" rx="169" ry="21.43"/>
<text text-anchor="middle" x="3555" y="-37" font-family="Noto Sans Thai,Tahoma,Arial" font-size="10.00" fill="#000000">หน่วยงานรัฐ</text>
<text text-anchor="middle" x="3555" y="-26" font-family="Noto Sans Thai,Tahoma,Arial" font-size="10.00" fill="#000000">(ตม./ประกันสังคม/ภงด.)</text>
</g>
<!-- WCD_WI010&#45;&gt;ext_Gov -->
<g id="edge47" class="edge">
<title>WCD_WI010&#45;&gt;ext_Gov</title>
<path fill="none" stroke="#c62828" d="M3555,-112.11C3555,-99.13 3555,-81.03 3555,-65.63"/>
<polygon fill="#c62828" stroke="#c62828" points="3558.5,-65.5 3555,-55.5 3551.5,-65.5 3558.5,-65.5"/>
<text text-anchor="middle" x="3632.5" y="-84.81" font-family="Noto Sans Thai,Tahoma,Arial" font-size="8.00">ภงด.1 / ประกันสังคม /</text>
<text text-anchor="middle" x="3632.5" y="-75.81" font-family="Noto Sans Thai,Tahoma,Arial" font-size="8.00">กยศ.</text>
</g>
<!-- ext_BU -->
<g id="node57" class="node">
<title>ext_BU</title>
<ellipse fill="#ffe082" stroke="black" cx="1246" cy="-1302.35" rx="132.87" ry="21.43"/>
<text text-anchor="middle" x="1246" y="-1305.35" font-family="Noto Sans Thai,Tahoma,Arial" font-size="10.00" fill="#000000">BU</text>
<text text-anchor="middle" x="1246" y="-1294.35" font-family="Noto Sans Thai,Tahoma,Arial" font-size="10.00" fill="#000000">(ขออัตรากำลัง)</text>
</g>
<!-- ext_BU&#45;&gt;PAO_WI001 -->
<g id="edge1" class="edge">
<title>ext_BU&#45;&gt;PAO_WI001</title>
<path fill="none" stroke="#1565c0" d="M1246,-1281.02C1246,-1262.93 1246,-1236.31 1246,-1216.37"/>
<polygon fill="#1565c0" stroke="#1565c0" points="1249.5,-1216.36 1246,-1206.36 1242.5,-1216.36 1249.5,-1216.36"/>
<text text-anchor="middle" x="1334" y="-1256.73" font-family="Noto Sans Thai,Tahoma,Arial" font-size="8.00">ขอเพิ่มอัตรากำลัง</text>
<text text-anchor="middle" x="1334" y="-1247.73" font-family="Noto Sans Thai,Tahoma,Arial" font-size="8.00">(ฟอร์ม BCT PPP7)</text>
</g>
<!-- ext_CU -->
<g id="node59" class="node">
<title>ext_CU</title>
<ellipse fill="#ffe082" stroke="black" cx="3795" cy="-341.07" rx="144.5" ry="21.43"/>
<text text-anchor="middle" x="3795" y="-344.07" font-family="Noto Sans Thai,Tahoma,Arial" font-size="10.00" fill="#000000">CU</text>
<text text-anchor="middle" x="3795" y="-333.07" font-family="Noto Sans Thai,Tahoma,Arial" font-size="10.00" fill="#000000">(ออมหุ้น/เงินกู้)</text>
</g>
<!-- ext_CU&#45;&gt;WCD_WI004 -->
<g id="edge45" class="edge">
<title>ext_CU&#45;&gt;WCD_WI004</title>
<path fill="none" stroke="#1565c0" d="M3693.89,-325.92C3671.38,-320.35 3648.22,-312.61 3628,-301.85 3605.04,-289.64 3583.83,-269.02 3569.17,-252.64"/>
<polygon fill="#1565c0" stroke="#1565c0" points="3571.73,-250.24 3562.53,-244.99 3566.45,-254.83 3571.73,-250.24"/>
<text text-anchor="middle" x="3693" y="-295.45" font-family="Noto Sans Thai,Tahoma,Arial" font-size="8.00">ข้อมูลออมหุ้น/</text>
<text text-anchor="middle" x="3693" y="-286.45" font-family="Noto Sans Thai,Tahoma,Arial" font-size="8.00">หักเงินกู้</text>
</g>
<!-- ext_CU&#45;&gt;WCD_WI005 -->
<g id="edge46" class="edge">
<title>ext_CU&#45;&gt;WCD_WI005</title>
<path fill="none" stroke="#1565c0" d="M3938.37,-338.61C4058.73,-334.2 4218.03,-319.89 4263,-275.85 4297.02,-242.54 4309.2,-204.72 4277,-169.64 4261.16,-152.39 4090.2,-154.86 4067,-151.64 4063.54,-151.16 4060.02,-150.64 4056.47,-150.09"/>
<polygon fill="#1565c0" stroke="#1565c0" points="4056.83,-146.61 4046.4,-148.47 4055.72,-153.52 4056.83,-146.61"/>
<text text-anchor="middle" x="4334.5" y="-229.45" font-family="Noto Sans Thai,Tahoma,Arial" font-size="8.00">ข้อมูล CU</text>
<text text-anchor="middle" x="4334.5" y="-220.45" font-family="Noto Sans Thai,Tahoma,Arial" font-size="8.00">ประจำปี</text>
</g>
<!-- ext_CU&#45;&gt;WCD_WI006 -->
<g id="edge72" class="edge">
<title>ext_CU&#45;&gt;WCD_WI006</title>
<path fill="none" stroke="#1565c0" d="M3783.23,-319.75C3772.55,-301.32 3756.76,-274.05 3745.15,-254"/>
<polygon fill="#1565c0" stroke="#1565c0" points="3748.02,-251.98 3739.98,-245.08 3741.96,-255.49 3748.02,-251.98"/>
<text text-anchor="middle" x="3838" y="-295.45" font-family="Noto Sans Thai,Tahoma,Arial" font-size="8.00">ข้อมูลหุ้น CU/GTC</text>
<text text-anchor="middle" x="3838" y="-286.45" font-family="Noto Sans Thai,Tahoma,Arial" font-size="8.00">สมาชิกเกษียณ</text>
</g>
<!-- ext_HOCC -->
<g id="node60" class="node">
<title>ext_HOCC</title>
<ellipse fill="#ffe082" stroke="black" cx="4493" cy="-226.85" rx="67.76" ry="21.43"/>
<text text-anchor="middle" x="4493" y="-229.85" font-family="Noto Sans Thai,Tahoma,Arial" font-size="10.00" fill="#000000">HOCC</text>
<text text-anchor="middle" x="4493" y="-218.85" font-family="Noto Sans Thai,Tahoma,Arial" font-size="10.00" fill="#000000">(PFS/ภาษี)</text>
</g>
<!-- ext_HOCC&#45;&gt;WCD_WI005 -->
<g id="edge44" class="edge">
<title>ext_HOCC&#45;&gt;WCD_WI005</title>
<path fill="none" stroke="#1565c0" d="M4471.85,-206.46C4456.26,-193.48 4433.89,-177.39 4411,-169.64 4338.5,-145.08 4142.99,-160.9 4067,-151.64 4063.02,-151.15 4058.96,-150.61 4054.87,-150.01"/>
<polygon fill="#1565c0" stroke="#1565c0" points="4055.07,-146.5 4044.65,-148.44 4054.01,-153.42 4055.07,-146.5"/>
<text text-anchor="middle" x="4482.5" y="-181.24" font-family="Noto Sans Thai,Tahoma,Arial" font-size="8.00">ข้อมูล PFS</text>
<text text-anchor="middle" x="4482.5" y="-172.24" font-family="Noto Sans Thai,Tahoma,Arial" font-size="8.00">สมาชิก</text>
</g>
<!-- ext_BMC&#45;&gt;PAO_WI009 -->
<g id="edge54" class="edge">
<title>ext_BMC&#45;&gt;PAO_WI009</title>
<path fill="none" stroke="#1565c0" d="M3447.35,-454.61C3593.34,-492.65 3941,-588.69 3941,-640.71 3941,-1099.13 3941,-1099.13 3941,-1099.13 3941,-1158.94 1848.59,-1165.04 1789,-1170.13 1786.13,-1170.38 1783.23,-1170.64 1780.3,-1170.93"/>
<polygon fill="#1565c0" stroke="#1565c0" points="1779.85,-1167.45 1770.26,-1171.96 1780.57,-1174.42 1779.85,-1167.45"/>
<text text-anchor="middle" x="4019.5" y="-824.31" font-family="Noto Sans Thai,Tahoma,Arial" font-size="8.00">ขอเพิ่มโครงสร้าง</text>
<text text-anchor="middle" x="4019.5" y="-815.31" font-family="Noto Sans Thai,Tahoma,Arial" font-size="8.00">องค์กร</text>
</g>
<!-- ext_BMC&#45;&gt;WCD_WI006 -->
<g id="edge48" class="edge">
<title>ext_BMC&#45;&gt;WCD_WI006</title>
<path fill="none" stroke="#1565c0" d="M3401.6,-416.41C3424.65,-391.12 3467.28,-347.61 3511,-319.85 3546.68,-297.21 3558.31,-295.27 3599,-283.85 3620.67,-277.77 3627.83,-283.5 3649,-275.85 3666.19,-269.64 3683.81,-259.7 3698.21,-250.47"/>
<polygon fill="#1565c0" stroke="#1565c0" points="3700.3,-253.28 3706.73,-244.86 3696.45,-247.44 3700.3,-253.28"/>
<text text-anchor="middle" x="3576.5" y="-343.67" font-family="Noto Sans Thai,Tahoma,Arial" font-size="8.00">สมาชิกอายุ 60 ปี</text>
<text text-anchor="middle" x="3576.5" y="-334.67" font-family="Noto Sans Thai,Tahoma,Arial" font-size="8.00">(เกษียณ)</text>
</g>
</g>
</svg>
