<svg xmlns="http://www.w3.org/2000/svg" width="1000" height="800" viewBox="0 0 1000 800">
  <defs>
    <marker id="arrow" markerWidth="10" markerHeight="7" refX="9" refY="3.5" orient="auto">
      <polygon points="0 0, 10 3.5, 0 7" fill="#1a73e8"/>
    </marker>
  </defs>
  <rect width="1000" height="800" fill="white"/>
  <text x="500" y="30" text-anchor="middle" font-family="Arial" font-size="18" font-weight="bold" fill="#1a73e8">PM-WI-001: คปอ.</text>
  <rect x="400" y="50" width="200" height="40" rx="8" fill="#e8f0fe" stroke="#1a73e8" stroke-width="2"/>
  <text x="500" y="70" text-anchor="middle" font-family="Arial" font-size="11" fill="#333">ตรวจสอบจำนวนลูกจ้าง</text>
  <rect x="400" y="110" width="200" height="50" rx="8" fill="#fff8e1" stroke="#f9a825" stroke-width="2"/>
  <text x="500" y="135" text-anchor="middle" font-family="Arial" font-size="11" fill="#333">ลูกจ้าง >= 50 คน?</text>
  <rect x="400" y="180" width="200" height="40" rx="8" fill="#e8f0fe" stroke="#1a73e8" stroke-width="2"/>
  <text x="500" y="200" text-anchor="middle" font-family="Arial" font-size="11" fill="#333">แต่งตั้งตัวแทนนายจ้าง</text>
  <rect x="400" y="240" width="200" height="40" rx="8" fill="#e8f0fe" stroke="#1a73e8" stroke-width="2"/>
  <text x="500" y="260" text-anchor="middle" font-family="Arial" font-size="11" fill="#333">เลือกตั้งตัวแทนลูกจ้าง</text>
  <rect x="400" y="300" width="200" height="40" rx="8" fill="#e8f0fe" stroke="#1a73e8" stroke-width="2"/>
  <text x="500" y="320" text-anchor="middle" font-family="Arial" font-size="11" fill="#333">ออกคำสั่งแต่งตั้ง คปอ.</text>
  <rect x="400" y="360" width="200" height="40" rx="8" fill="#e8f0fe" stroke="#1a73e8" stroke-width="2"/>
  <text x="500" y="380" text-anchor="middle" font-family="Arial" font-size="11" fill="#333">อบรม คปอ.</text>
  <rect x="400" y="420" width="200" height="40" rx="8" fill="#e8f0fe" stroke="#1a73e8" stroke-width="2"/>
  <text x="500" y="440" text-anchor="middle" font-family="Arial" font-size="11" fill="#333">แจ้งกรมสวัสดิการ</text>
  <rect x="100" y="500" width="200" height="50" rx="8" fill="#e3f2fd" stroke="#1565c0" stroke-width="2"/>
  <text x="200" y="519" text-anchor="middle" font-family="Arial" font-size="11" fill="#333">ประชุม คปอ.</text>
  <text x="200" y="533" text-anchor="middle" font-family="Arial" font-size="11" fill="#333">รายเดือน</text>
  <rect x="400" y="500" width="200" height="50" rx="8" fill="#e3f2fd" stroke="#1565c0" stroke-width="2"/>
  <text x="500" y="519" text-anchor="middle" font-family="Arial" font-size="11" fill="#333">ตรวจพื้นที่</text>
  <text x="500" y="533" text-anchor="middle" font-family="Arial" font-size="11" fill="#333">รายเดือน</text>
  <rect x="700" y="500" width="200" height="50" rx="8" fill="#fce4ec" stroke="#c62828" stroke-width="2"/>
  <text x="800" y="519" text-anchor="middle" font-family="Arial" font-size="11" fill="#333">สอบสวนอุบัติเหตุ</text>
  <text x="800" y="533" text-anchor="middle" font-family="Arial" font-size="11" fill="#333">ทันที</text>
  <rect x="100" y="580" width="200" height="40" rx="8" fill="#e8f0fe" stroke="#1a73e8" stroke-width="2"/>
  <text x="200" y="600" text-anchor="middle" font-family="Arial" font-size="11" fill="#333">เตรียมวาระ-แจ้ง-ดำเนินการ</text>
  <rect x="100" y="640" width="200" height="40" rx="8" fill="#e8f0fe" stroke="#1a73e8" stroke-width="2"/>
  <text x="200" y="660" text-anchor="middle" font-family="Arial" font-size="11" fill="#333">บันทึกมติ-แจ้ง-ติดตาม</text>
  <rect x="400" y="580" width="200" height="40" rx="8" fill="#e8f0fe" stroke="#1a73e8" stroke-width="2"/>
  <text x="500" y="600" text-anchor="middle" font-family="Arial" font-size="11" fill="#333">กำหนดแผน-ตรวจ</text>
  <rect x="400" y="640" width="200" height="40" rx="8" fill="#e8f0fe" stroke="#1a73e8" stroke-width="2"/>
  <text x="500" y="660" text-anchor="middle" font-family="Arial" font-size="11" fill="#333">รายงาน-เสนอแนะ</text>
  <rect x="400" y="700" width="200" height="40" rx="8" fill="#e8f0fe" stroke="#1a73e8" stroke-width="2"/>
  <text x="500" y="720" text-anchor="middle" font-family="Arial" font-size="11" fill="#333">ติดตามแก้ไข</text>
  <rect x="700" y="580" width="200" height="40" rx="8" fill="#e8f0fe" stroke="#1a73e8" stroke-width="2"/>
  <text x="800" y="600" text-anchor="middle" font-family="Arial" font-size="11" fill="#333">รับแจ้ง-เก็บหลักฐาน</text>
  <rect x="700" y="640" width="200" height="40" rx="8" fill="#e8f0fe" stroke="#1a73e8" stroke-width="2"/>
  <text x="800" y="660" text-anchor="middle" font-family="Arial" font-size="11" fill="#333">สอบสวน-5 Why</text>
  <rect x="700" y="700" width="200" height="40" rx="8" fill="#e8f0fe" stroke="#1a73e8" stroke-width="2"/>
  <text x="800" y="720" text-anchor="middle" font-family="Arial" font-size="11" fill="#333">เสนอแนะ-ติดตาม</text>
  <line x1="500" y1="90" x2="500" y2="110" stroke="#1a73e8" stroke-width="2" marker-end="url(#arrow)"/>
  <line x1="500" y1="160" x2="500" y2="180" stroke="#1a73e8" stroke-width="2" marker-end="url(#arrow)"/>
  <text x="500" y="165" text-anchor="middle" font-family="Arial" font-size="10" fill="#666">ใช่</text>
  <line x1="500" y1="220" x2="500" y2="240" stroke="#1a73e8" stroke-width="2" marker-end="url(#arrow)"/>
  <line x1="500" y1="280" x2="500" y2="300" stroke="#1a73e8" stroke-width="2" marker-end="url(#arrow)"/>
  <line x1="500" y1="340" x2="500" y2="360" stroke="#1a73e8" stroke-width="2" marker-end="url(#arrow)"/>
  <line x1="500" y1="400" x2="500" y2="420" stroke="#1a73e8" stroke-width="2" marker-end="url(#arrow)"/>
  <line x1="500" y1="460" x2="200" y2="500" stroke="#1a73e8" stroke-width="2" marker-end="url(#arrow)"/>
  <line x1="500" y1="460" x2="500" y2="500" stroke="#1a73e8" stroke-width="2" marker-end="url(#arrow)"/>
  <line x1="500" y1="460" x2="800" y2="500" stroke="#1a73e8" stroke-width="2" marker-end="url(#arrow)"/>
  <line x1="200" y1="550" x2="200" y2="580" stroke="#1a73e8" stroke-width="2" marker-end="url(#arrow)"/>
  <line x1="200" y1="620" x2="200" y2="640" stroke="#1a73e8" stroke-width="2" marker-end="url(#arrow)"/>
  <line x1="500" y1="550" x2="500" y2="580" stroke="#1a73e8" stroke-width="2" marker-end="url(#arrow)"/>
  <line x1="500" y1="620" x2="500" y2="640" stroke="#1a73e8" stroke-width="2" marker-end="url(#arrow)"/>
  <line x1="500" y1="680" x2="500" y2="700" stroke="#1a73e8" stroke-width="2" marker-end="url(#arrow)"/>
  <line x1="800" y1="550" x2="800" y2="580" stroke="#1a73e8" stroke-width="2" marker-end="url(#arrow)"/>
  <line x1="800" y1="620" x2="800" y2="640" stroke="#1a73e8" stroke-width="2" marker-end="url(#arrow)"/>
  <line x1="800" y1="680" x2="800" y2="700" stroke="#1a73e8" stroke-width="2" marker-end="url(#arrow)"/>
</svg>